<?xml version="1.0" encoding="utf-8"?>
<svg xmlns="http://www.w3.org/2000/svg" viewBox="0 0 90 76" fill="#304156">
<path d="M47.4,31c0,1-0.8,1.8-1.8,1.8c-1,0-1.8-0.8-1.8-1.8s0.8-1.8,1.8-1.8C46.6,29.2,47.4,30.1,47.4,31z M39.9,34.7
	v0.4c0,0-0.9-1.1-2.7-1.1c-3.1,0-5.4,2.3-5.4,5.5c0,3.2,2.4,5.5,5.4,5.5c1.9,0,2.7-1.1,2.7-1.1v0.5c0,0.2,0.2,0.4,0.4,0.4h2.3V34.3
	h-2.3C40.1,34.3,39.9,34.5,39.9,34.7L39.9,34.7z M39.9,41.5c-0.4,0.6-1.3,1.1-2.3,1.1c-1.8,0-3.2-1.1-3.2-3c0-1.9,1.4-3,3.2-3
	c1,0,1.9,0.6,2.3,1.1V41.5z M44.3,34.3h2.7v10.5h-2.7V34.3L44.3,34.3z M84.4,34c-1.8,0-2.7,1.1-2.7,1.1v-5.9H79v15.6h2.3
	c0.2,0,0.4-0.2,0.4-0.4V44c0,0,0.9,1.1,2.7,1.1c3.1,0,5.4-2.4,5.4-5.5S87.5,34,84.4,34L84.4,34z M84,42.6c-1,0-1.8-0.5-2.3-1.1v-3.8
	c0.4-0.6,1.3-1.1,2.3-1.1c1.8,0,3.2,1.1,3.2,3S85.8,42.6,84,42.6z M77.6,38.6v6.3h-2.7v-6c0-1.7-0.6-2.4-2.1-2.4
	c-0.8,0-1.7,0.4-2.2,1v7.3H68V34.3h2.1c0.2,0,0.4,0.2,0.4,0.4v0.4c0.8-0.8,1.8-1.1,2.9-1.1c1.2,0,2.2,0.3,2.9,1
	C77.3,35.8,77.6,36.8,77.6,38.6L77.6,38.6z M61.5,34c-1.8,0-2.7,1.1-2.7,1.1v-5.9h-2.7v15.6h2.3c0.2,0,0.4-0.2,0.4-0.4V44
	c0,0,0.9,1.1,2.7,1.1c3.1,0,5.4-2.4,5.4-5.5C66.9,36.4,64.5,34,61.5,34L61.5,34z M61,42.6c-1,0-1.8-0.5-2.3-1.1v-3.8
	c0.4-0.6,1.3-1.1,2.3-1.1c1.8,0,3.2,1.1,3.2,3S62.8,42.6,61,42.6z M53.7,34c0.8,0,1.2,0.1,1.2,0.1v2.5c0,0-2.2-0.8-3.6,0.8v7.4h-2.7
	V34.3h2.3c0.2,0,0.4,0.2,0.4,0.4v0.4C51.8,34.6,52.9,34,53.7,34L53.7,34z M25.8,43.9c-0.1-0.3-0.3-0.7-0.4-1c-0.2-0.5-0.4-1-0.6-1.4
	l0,0c-1.9-4.2-4-8.5-6.2-12.7l-0.1-0.2c-0.2-0.4-0.5-0.9-0.7-1.3c-0.3-0.5-0.6-1-1-1.5c-0.9-1.1-2.2-1.7-3.6-1.7
	c-1.4,0-2.7,0.6-3.6,1.7c-0.4,0.5-0.7,1-1,1.5c-0.2,0.4-0.4,0.9-0.7,1.3l-0.1,0.2c-2.2,4.2-4.3,8.5-6.2,12.7l0,0.1
	c-0.2,0.4-0.4,0.9-0.6,1.4c-0.1,0.3-0.3,0.6-0.4,1c-0.4,1-0.5,2-0.3,3c0.3,2.1,1.7,3.9,3.6,4.7C4.6,51.9,5.3,52,6.1,52
	c0.2,0,0.5,0,0.7-0.1c0.9-0.1,1.9-0.4,2.8-1c1.1-0.6,2.2-1.6,3.5-2.9c1.2,1.3,2.4,2.3,3.5,2.9c0.9,0.5,1.9,0.8,2.8,1
	c0.2,0,0.5,0.1,0.7,0.1c0.8,0,1.6-0.1,2.3-0.4c2-0.8,3.3-2.6,3.6-4.7C26.3,45.9,26.2,44.9,25.8,43.9L25.8,43.9z M13.1,45.4
	c-1.5-1.9-2.5-3.7-2.8-5.2c-0.1-0.6-0.2-1.2-0.1-1.7c0.1-0.4,0.2-0.8,0.4-1.2c0.5-0.8,1.4-1.2,2.5-1.2c1,0,2,0.4,2.5,1.2
	c0.2,0.3,0.4,0.7,0.4,1.2c0.1,0.5,0.1,1.1-0.1,1.7C15.6,41.6,14.7,43.4,13.1,45.4z M24.3,46.7c-0.2,1.5-1.2,2.7-2.6,3.3
	c-0.7,0.3-1.4,0.4-2.1,0.3c-0.7-0.1-1.4-0.3-2.1-0.7c-1-0.6-2-1.4-3.2-2.7c1.8-2.3,3-4.3,3.4-6.2c0.2-0.9,0.2-1.7,0.1-2.4
	c-0.1-0.7-0.4-1.3-0.8-1.9c-0.9-1.3-2.3-2-4-2s-3.1,0.8-4,2c-0.4,0.6-0.6,1.2-0.8,1.9c-0.1,0.7-0.1,1.5,0.1,2.4
	c0.4,1.8,1.6,4,3.4,6.2c-1.1,1.3-2.2,2.2-3.2,2.7C8,50,7.3,50.2,6.6,50.3c-0.8,0.1-1.5,0-2.1-0.3c-1.4-0.6-2.4-1.8-2.6-3.3
	c-0.1-0.7,0-1.4,0.3-2.2c0.1-0.3,0.2-0.6,0.4-0.9c0.2-0.4,0.4-0.9,0.6-1.4l0-0.1c1.9-4.2,4-8.4,6.2-12.6l0.1-0.2
	c0.2-0.4,0.4-0.9,0.7-1.3c0.2-0.4,0.5-0.9,0.8-1.2c0.6-0.7,1.4-1,2.2-1c0.9,0,1.7,0.4,2.2,1c0.3,0.4,0.6,0.8,0.8,1.2
	c0.2,0.4,0.4,0.9,0.7,1.3l0.1,0.2c2.1,4.2,4.2,8.4,6.1,12.6v0c0.2,0.4,0.4,1,0.6,1.4c0.1,0.3,0.3,0.6,0.4,0.9
	C24.4,45.2,24.4,45.9,24.3,46.7L24.3,46.7z"/>
</svg>
