<svg xmlns="http://www.w3.org/2000/svg" width="29.193" height="33.951" viewBox="0 0 29.193 33.951">
    <path d="M1.938 2.248v19.207c0 5.776 5.63 13.808 14.1 13.743 8.466.066 14.1-7.967 14.1-13.743V2.248z" transform="translate(-1.438 -1.748)" style="fill-rule:evenodd;stroke:#000;fill:red"/>
    <path d="m101.049 374.98-.456.03-9.872-7.5.456-.03z" transform="translate(-87.682 -349.902)" style="fill:#ff0;fill-rule:evenodd;stroke:#000"/>
    <path d="m242.277 374.98.456.03 9.872-7.5-.456-.03z" transform="translate(-226.451 -349.902)" style="fill:#ff0;fill-rule:evenodd;stroke:#000"/>
    <path d="M91.584 295.151c-2.038.16-5.961 4.478-7.891 5.289a1.041 1.041 0 0 1-1.247-.544.779.779 0 0 0 .058 1.227c2.393 1.553 6.646-4.373 9.074-4.373 1.22 0 .968.91 2.872.91s1.652-.91 2.872-.91c2.429 0 6.682 5.925 9.074 4.373a.779.779 0 0 0 .058-1.227 1.041 1.041 0 0 1-1.247.544c-1.992-.837-6.108-5.4-8.082-5.289-1.342.075-1.623 1.144-2.675 1.16-1.052-.016-1.332-1.085-2.675-1.16a1.416 1.416 0 0 0-.191 0z" transform="translate(-79.854 -283.676)" style="stroke-width:1.76px;fill:#ff0;fill-rule:evenodd;stroke:#000"/>
    <path d="M90.221 358.329a1.114 1.114 0 0 0-.192.8" transform="translate(-87.035 -341.526)" style="stroke-linecap:round;fill:none;stroke-width:1.76px;fill-rule:evenodd;stroke:#000"/>
    <path d="M97.5 358.136a1.408 1.408 0 0 0-.225.9" transform="translate(-93.675 -341.349)" style="stroke-linecap:round;fill:none;stroke-width:1.76px;fill-rule:evenodd;stroke:#000"/>
    <path d="M93.75 358.622a1.277 1.277 0 0 0-.225.848" transform="translate(-90.239 -341.794)" style="stroke-linecap:round;fill:none;stroke-width:1.76px;fill-rule:evenodd;stroke:#000"/>
    <path d="M90.221 358.329a1.114 1.114 0 0 0-.192.8" transform="translate(-87.035 -341.526)" style="stroke-linecap:round;fill:none;stroke-width:1.76px;fill-rule:evenodd;stroke:#000"/>
    <path d="M97.5 358.136a1.408 1.408 0 0 0-.225.9" transform="translate(-93.675 -341.349)" style="stroke-linecap:round;fill:none;stroke-width:1.76px;fill-rule:evenodd;stroke:#000"/>
    <path d="M93.75 358.622a1.277 1.277 0 0 0-.225.848" transform="translate(-90.239 -341.794)" style="stroke-linecap:round;fill:none;stroke-width:1.76px;fill-rule:evenodd;stroke:#000"/>
    <path d="M.207.8A1.113 1.113 0 0 1 .016 0" transform="rotate(180 13.107 8.801)" style="stroke-linecap:round;fill:none;stroke-width:1.76px;fill-rule:evenodd;stroke:#000"/>
    <path d="M.237.9A1.408 1.408 0 0 1 .012 0" transform="rotate(180 12.802 8.842)" style="stroke-linecap:round;fill:none;stroke-width:1.76px;fill-rule:evenodd;stroke:#000"/>
    <path d="M.237.848A1.277 1.277 0 0 1 .012 0" transform="rotate(180 12.96 8.838)" style="stroke-linecap:round;fill:none;stroke-width:1.76px;fill-rule:evenodd;stroke:#000"/>
    <path d="M.207.8A1.113 1.113 0 0 1 .016 0" transform="rotate(180 13.107 8.801)" style="stroke-linecap:round;fill:none;stroke-width:1.76px;fill-rule:evenodd;stroke:#000"/>
    <path d="M.237.9A1.408 1.408 0 0 1 .012 0" transform="rotate(180 12.802 8.842)" style="stroke-linecap:round;fill:none;stroke-width:1.76px;fill-rule:evenodd;stroke:#000"/>
    <path d="M.237.848A1.277 1.277 0 0 1 .012 0" transform="rotate(180 12.96 8.838)" style="stroke-linecap:round;fill:none;stroke-width:1.76px;fill-rule:evenodd;stroke:#000"/>
    <path d="M191.544 415.875c-.4.218-.5.582-.236 1.231.42 1.05 1.6 3.629 1.6 3.629l.223-.665.51.194.171-.518.657.246s-1.264-2.536-1.816-3.524c-.346-.611-.688-.768-1.109-.593z" transform="translate(-179.649 -394.155)" style="stroke-linejoin:round;stroke-linecap:round;stroke-width:1.76px;fill:#ff0;fill-rule:evenodd;stroke:#000"/>
    <path d="M.917 0 0 2.692c.623-.3.714-.07.714-.07v16.87c.147.147.255.151.406 0V2.622s.09-.226.713.07z" style="stroke-width:1.76px;stroke-linejoin:round;stroke-linecap:round;fill:#ff0;fill-rule:evenodd;stroke:#000" transform="rotate(-25.5 20.915 -5.864)"/>
    <path d="M.864 0C.41.025.167.312.122 1.009.049 2.138 0 4.972 0 4.972l.487-.5.377.394.377-.394.487.5s-.048-2.834-.121-3.963C1.562.312 1.319.025.864 0z" transform="rotate(25.5 -38.923 47.13)" style="stroke-width:1.76px;stroke-linejoin:round;stroke-linecap:round;fill:#ff0;fill-rule:evenodd;stroke:#000"/>
    <path d="M.917 0 0 2.692c.623-.3.713-.07.713-.07v16.87c.147.147.255.151.406 0V2.622s.09-.226.714.07z" style="stroke-width:1.76px;stroke-linejoin:round;stroke-linecap:round;fill:#ff0;fill-rule:evenodd;stroke:#000" transform="rotate(25.5 -5.402 54.594)"/>
    <path d="M218.321 414.564c-.455.025-.7.312-.743 1.009-.073 1.129-.122 3.962-.122 3.962l.487-.5.377.394.377-.394.487.5s-.049-2.833-.122-3.962c-.044-.698-.287-.985-.741-1.009z" transform="translate(-203.724 -393.015)" style="stroke-linejoin:round;stroke-linecap:round;stroke-width:1.76px;fill:#ff0;fill-rule:evenodd;stroke:#000"/>
    <path d="m217.754 234.918-.917 2.692c.623-.3.713-.07.713-.07v16.87c.147.147.255.151.406 0v-16.87s.09-.226.714.07z" transform="translate(-203.158 -228.528)" style="stroke-linejoin:round;stroke-linecap:round;stroke-width:1.76px;fill:#ff0;fill-rule:evenodd;stroke:#000"/>
    <path d="M16.268 35.922a13.429 13.429 0 0 1-4.49-1.129 15.277 15.277 0 0 1-6.8-6.365 13.569 13.569 0 0 1-1.739-5.335c-.024-.266-.036-3.741-.036-10.134v-9.73h27.962v9.852c0 6.246-.013 9.975-.035 10.187a15.187 15.187 0 0 1-5.937 9.985 13.145 13.145 0 0 1-6.969 2.657c-.452.033-1.484.04-1.955.012zm-.238-6.991c.076-.227.115-.3.152-.287s.051.083.051.258.015.251.055.284.09.011.3-.193l.241-.239.18.187.18.187.193-.191.193-.191.243.241c.136.135.26.23.282.217a.592.592 0 0 0 .039-.282c0-.192.013-.263.051-.278s.077.059.152.287c.162.488.17.482.621-.529.21-.47.4-.889.428-.93.083-.133 9.328-7.134 9.514-7.205a1.086 1.086 0 0 0 .57-.459.943.943 0 0 0-.2-1.025l-.107-.1-.06.126a1.04 1.04 0 0 1-.85.526 4.82 4.82 0 0 1-1.923-1.114c-.366-.281-2.191-1.76-2.295-1.858a16.68 16.68 0 0 1 .72-1.608c.414-.867.756-1.583.76-1.589.026-.039.193.062.354.214.185.175.293.2.293.075 0-.032.072-.676.161-1.431s.152-1.4.141-1.424a.065.065 0 0 0-.071-.04 26.975 26.975 0 0 0-2.055 2.134c.009.048.061.065.246.081a.922.922 0 0 1 .323.078l.089.058-.719 1.5c-.4.827-.727 1.511-.735 1.519a5.238 5.238 0 0 1-.555-.389 9.026 9.026 0 0 0-2.41-1.433 1.636 1.636 0 0 0-.635-.108 2.472 2.472 0 0 0-1.605.63 2.356 2.356 0 0 1-.807.461c-.06 0-.064-.086-.064-1.725v-1.719l.084-.021a.854.854 0 0 1 .333.066c.194.068.258.077.286.044a26.74 26.74 0 0 0-.934-2.8c-.034-.035-.062-.04-.086-.015-.041.041-.951 2.7-.951 2.775s.077.085.24.016a1.1 1.1 0 0 1 .3-.074l.148-.009.009 1.734a9.249 9.249 0 0 1-.035 1.734 2.721 2.721 0 0 1-.8-.454 2.484 2.484 0 0 0-1.632-.637 1.61 1.61 0 0 0-.63.106 9.274 9.274 0 0 0-2.437 1.456 2.6 2.6 0 0 1-.519.347c-.064-.064-1.438-2.985-1.423-3.024.022-.056.245-.118.43-.118a.275.275 0 0 0 .19-.054c.038-.045-.017-.117-.356-.467-.958-.989-1.672-1.7-1.71-1.7a.069.069 0 0 0-.057.044c-.021.055.308 2.856.341 2.91s.089.044.267-.134c.159-.159.3-.244.337-.2s1.493 3.1 1.493 3.144a9.892 9.892 0 0 1-.836.729 17.911 17.911 0 0 1-2.929 2.145.85.85 0 0 1-.832.066 1.175 1.175 0 0 1-.49-.463l-.044-.109-.1.077a1.065 1.065 0 0 0-.295.592.847.847 0 0 0 .6.887c.2.091 1.311.919 4.887 3.636l4.631 3.518.42.932c.495 1.1.5 1.1.662.605z" transform="translate(-2.596 -2.604)" style="fill:#d90000;fill-rule:evenodd"/>
    <path d="M46.733 179.334c-2.182-1.66-3.957-3.027-3.944-3.039a1.4 1.4 0 0 1 .256-.078 10.812 10.812 0 0 0 3.6-2.232l.592-.468.118.255c.065.14.794 1.671 1.619 3.4l1.5 3.146-.069.1c-.2.286-.173.617.123 1.337.229.557.246.6.2.6a470.3 470.3 0 0 1-3.995-3.021z" transform="translate(-38.842 -158.524)" style="fill:#d90000;fill-rule:evenodd"/>
    <path d="M105.793 161.573a3.707 3.707 0 0 0-.611-.989.814.814 0 0 0-.508-.288c-.1 0-.129-.058-1.745-3.447-.9-1.9-1.644-3.463-1.644-3.484a1.654 1.654 0 0 1 .322-.273 4.535 4.535 0 0 1 2.636-1.2 1.6 1.6 0 0 1 .913.358 3.829 3.829 0 0 0 .5.3 2.817 2.817 0 0 0 .833.214c.236 0 .216-.341.215 3.763v3.721l-.114.055a1.036 1.036 0 0 0-.377.609 6.186 6.186 0 0 0-.06.7 2.807 2.807 0 0 1-.046.519 4.871 4.871 0 0 1-.317-.555z" transform="translate(-92.403 -138.717)" style="fill:#d90000;fill-rule:evenodd"/>
    <path d="M172.818 161.707c-.048-.922-.168-1.275-.487-1.442l-.1-.05V156.5c0-4.1-.021-3.753.223-3.754a2.689 2.689 0 0 0 1.34-.508 1.557 1.557 0 0 1 .933-.362 1.453 1.453 0 0 1 .613.075 5.225 5.225 0 0 1 1.24.6 12.473 12.473 0 0 1 1.107.792c0 .01-.742 1.571-1.648 3.469l-1.648 3.451-.16.023c-.362.052-.567.287-1.067 1.228-.17.32-.313.586-.319.592a4.018 4.018 0 0 1-.031-.4z" transform="translate(-157.364 -138.708)" style="fill:#d90000;fill-rule:evenodd"/>
    <path d="M200.2 182.452c0-.012.1-.253.214-.535.336-.807.375-1.082.2-1.4l-.081-.143 1.57-3.293 1.623-3.4.053-.11.493.389a17.923 17.923 0 0 0 2.739 1.914 4.459 4.459 0 0 0 1.152.44c.042 0 .072.016.065.035-.014.042-8.024 6.134-8.024 6.1z" transform="translate(-182.974 -158.574)" style="fill:#d90000;fill-rule:evenodd"/>
    <path d="M95 135.734c-.048-.108-.15-.323-.228-.477l-.141-.28.554-.418c1.429-1.079 2.3-1.524 2.971-1.523a2.246 2.246 0 0 1 1.472.576 2.851 2.851 0 0 0 .794.477l.176.066.01.59.01.59-.256-.022a2.325 2.325 0 0 1-1.262-.513 1.663 1.663 0 0 0-.951-.344 2.461 2.461 0 0 0-1.284.322 13.821 13.821 0 0 0-1.615 1.022l-.168.128z" transform="translate(-86.306 -121.458)" style="fill:#fcd116;fill-rule:evenodd"/>
    <path d="M65.928 104.033c-1.993-4.179-3.641-7.61-3.663-7.624-.086-.056-.234-.022-.406.094-.1.066-.18.11-.181.1l-.136-1.151c-.074-.62-.131-1.131-.127-1.136s.375.37.824.833l.816.843-.141.024c-.191.032-.369.157-.382.267-.007.06 1.147 2.515 3.514 7.478l3.525 7.39-.01.242-.01.242-3.623-7.6z" transform="translate(-55.897 -86.001)" style="fill:#fcd116;fill-rule:evenodd"/>
    <path d="M39.606 164.4a1.968 1.968 0 0 1 .1-.36c.081-.208.108-.231.575-.486a20.881 20.881 0 0 0 2.582-1.939l.853-.7c.056-.048.078-.016.284.418l.224.471-.442.351a15.788 15.788 0 0 1-3.18 2.151 3.375 3.375 0 0 1-.917.263c-.102.001-.103 0-.079-.169z" transform="translate(-35.916 -146.97)" style="fill:#fcd116;fill-rule:evenodd"/>
    <path d="M160.94 94.707c-.034-.034-.043-1.879-.043-8.468 0-7.609-.005-8.43-.055-8.48a.386.386 0 0 0-.39-.058.514.514 0 0 1-.177.026c-.014-.014.676-2.077.722-2.16a8.944 8.944 0 0 1 .4 1.068l.377 1.109-.113-.029a.51.51 0 0 0-.487.055c-.065.08-.066.3-.066 8.513 0 4.637-.007 8.431-.015 8.431a.3.3 0 0 0-.063.018.1.1 0 0 1-.091-.025z" transform="translate(-146.415 -68.837)" style="fill:#fcd116;fill-rule:evenodd"/>
    <path d="M177.957 135.776a12.508 12.508 0 0 0-1.514-.978 2.443 2.443 0 0 0-1.233-.34 1.6 1.6 0 0 0-1.084.355 8.71 8.71 0 0 1-.487.3 2.612 2.612 0 0 1-.83.21h-.153v-.6c0-.547.005-.6.062-.6a2.635 2.635 0 0 0 .872-.487 2.3 2.3 0 0 1 1.508-.6 4.089 4.089 0 0 1 2.085.9A11.516 11.516 0 0 1 178.6 135c-.058.146-.437.916-.451.915a1.643 1.643 0 0 1-.192-.139z" transform="translate(-157.752 -121.454)" style="fill:#fcd116;fill-rule:evenodd"/>
    <path d="m179.972 111.512-.012-.231 3.532-7.4c2.553-5.352 3.527-7.426 3.513-7.483-.023-.092-.112-.148-.353-.223l-.176-.055.81-.827c.445-.455.815-.824.821-.821s-.246 2.277-.262 2.3a.534.534 0 0 1-.148-.1c-.158-.127-.39-.179-.453-.1-.021.026-1.659 3.447-3.639 7.6s-3.605 7.559-3.611 7.566a1.079 1.079 0 0 1-.022-.226z" transform="translate(-164.439 -86.144)" style="fill:#fcd116;fill-rule:evenodd"/>
    <path d="M248.111 164.2a10.509 10.509 0 0 1-3.5-2.16c-.32-.251-.6-.475-.626-.5s0-.134.176-.507l.221-.465.951.779a18.547 18.547 0 0 0 2.858 2.085.425.425 0 0 1 .253.264 1.607 1.607 0 0 1 .1.372l.023.2h-.1a2.127 2.127 0 0 1-.348-.067z" transform="translate(-223.046 -146.672)" style="fill:#fcd116;fill-rule:evenodd"/>
    <path d="m179.52 256.195-.013-.458.368-.7a3.976 3.976 0 0 1 .735-1.185c.14-.126.278-.2.315-.159.014.014-1.129 2.459-1.345 2.876-.041.073-.048.031-.06-.374z" transform="translate(-164.024 -231.922)" style="fill:#fcd116;fill-rule:evenodd"/>
    <path d="M180.556 261.213c-.142-.4-.141-.4-.259-.4s-.151-.035-.05-.061a16.994 16.994 0 0 0 .956-1.888c.491-1.03.906-1.872.922-1.872s.046.066.068.146c.059.219-.021.507-.366 1.317-.311.731-1.216 2.77-1.24 2.794-.008.007-.022-.009-.031-.036z" transform="translate(-164.646 -234.954)" style="fill:#fcd116;fill-rule:evenodd"/>
    <path d="M166.678 257.515c-.081-.106-.086-.124-.031-.1.174.074.258.064.366-.045l.107-.107v-4.173l.088.082c.159.149.228.415.265 1.017.033.537.105 2.755.105 3.229v.237l-.2-.186-.2-.186-.183.181a1.4 1.4 0 0 1-.2.181.541.541 0 0 1-.117-.13z" transform="translate(-152.216 -231.381)" style="fill:#fcd116;fill-rule:evenodd"/>
    <path d="m159.825 257.234.05-1.738c.053-1.844.089-2.1.328-2.322l.093-.085v2.123c0 1.957 0 2.121-.058 2.1s-.113.037-.243.176l-.185.2z" transform="translate(-145.99 -231.381)" style="fill:#fcd116;fill-rule:evenodd"/>
    <path d="m42.044 210.187-4.344-3.308c-.437-.332-.493-.386-.405-.386s.973.663 4.276 3.173c2.3 1.745 4.217 3.211 4.27 3.257.089.078.133.194.07.187-.015 0-1.754-1.318-3.865-2.924z" transform="translate(-33.778 -188.718)" style="fill:#fcd116;fill-rule:evenodd"/>
    <path d="M197.281 213.564a.389.389 0 0 1 .1-.14c.053-.057 1.979-1.532 4.279-3.278 3.273-2.486 4.2-3.173 4.267-3.164s-.809.69-4.248 3.3c-2.383 1.811-4.347 3.3-4.364 3.3s-.034.003-.034-.018z" transform="translate(-180.298 -189.164)" style="fill:#fcd116;fill-rule:evenodd"/>
    <path d="M142.25 255.1c-.381-.8-.687-1.462-.679-1.47.04-.04.247.094.387.249a5.986 5.986 0 0 1 .739 1.264l.3.577v.282a3.306 3.306 0 0 1-.026.418c-.024.131-.049.085-.718-1.32z" transform="translate(-129.289 -231.874)" style="fill:#fcd116;fill-rule:evenodd"/>
    <path d="M134.589 260.086a20.655 20.655 0 0 1-1-2.4.65.65 0 0 1 .034-.529c.04-.054.159.175.95 1.833a15.417 15.417 0 0 0 .975 1.922c.106.039.087.055-.06.05-.129 0-.133 0-.2.2a1.391 1.391 0 0 1-.093.221c-.014.006-.286-.575-.606-1.297z" transform="translate(-121.947 -235.099)" style="fill:#fcd116;fill-rule:evenodd"/>
</svg>
