<?xml version="1.0" encoding="utf-8"?>
<svg xmlns="http://www.w3.org/2000/svg" viewBox="0 0 122 76" fill="#304156">
<path d="M14.2,30.5L7.1,35l7.1,4.5L7.1,44l-7.1-4.5L7.1,35l-7.1-4.5L7.1,26L14.2,30.5z M7.1,45.5l7.1-4.5l7.1,4.5
	L14.2,50L7.1,45.5z M14.2,39.5l7.1-4.5l-7.1-4.5l7-4.5l7.1,4.5L21.2,35l7.1,4.5L21.2,44L14.2,39.5z"/>
<path d="M33.8,30.5h5.7c3.6,0,6.7,2.1,6.7,6.9v1c0,4.9-2.8,7-6.5,7h-5.8V30.5z M37,33.2v9.5h2.4c2.1,0,3.5-1.4,3.5-4.4v-0.8
	c0-3-1.5-4.4-3.6-4.4H37z M47.9,33.4h2.6l0.4,2.8c0.5-1.9,1.7-2.9,4-2.9h0.8v3.2h-1.3c-2.6,0-3.2,0.9-3.2,3.5v5.6H48L47.9,33.4
	L47.9,33.4z M56.3,39.7v-0.3c0-4.1,2.6-6.3,6.1-6.3c3.6,0,6.1,2.2,6.1,6.3v0.3c0,4-2.4,6.1-6.1,6.1C58.5,45.8,56.3,43.7,56.3,39.7z
	 M65.3,39.7v-0.3c0-2.3-1.1-3.6-2.9-3.6c-1.8,0-2.9,1.2-2.9,3.6v0.3c0,2.2,1.1,3.4,2.9,3.4C64.2,43,65.3,41.8,65.3,39.7L65.3,39.7z
	 M70.2,33.4h2.6l0.3,2.3c0.6-1.5,2-2.6,4-2.6c3.1,0,5.1,2.2,5.1,6.3v0.3c0,4-2.3,6.1-5.1,6.1c-1.9,0-3.2-0.9-3.9-2.3v6.1h-3.1
	L70.2,33.4z M79.1,39.7v-0.3c0-2.4-1.2-3.6-2.9-3.6c-1.8,0-2.9,1.4-2.9,3.6v0.2c0,2.1,1.1,3.5,2.9,3.5
	C77.9,43.1,79.1,41.9,79.1,39.7L79.1,39.7z M86.9,43.3l-0.3,2.2H84V29.3H87v6.2c0.7-1.6,2-2.4,3.9-2.4c2.9,0,5,2,5,6.1v0.4
	c0,4-2,6.3-5.1,6.3C88.9,45.8,87.6,44.8,86.9,43.3L86.9,43.3z M92.8,39.5v-0.3c0-2.2-1.2-3.5-2.9-3.5c-1.7,0-2.9,1.4-2.9,3.5v0.3
	c0,2.3,1.2,3.6,2.9,3.6C91.7,43.1,92.8,41.9,92.8,39.5L92.8,39.5z M97.4,39.7v-0.3c0-4.1,2.6-6.3,6.1-6.3c3.6,0,6.1,2.2,6.1,6.3v0.3
	c0,4-2.5,6.1-6.1,6.1C99.6,45.8,97.4,43.7,97.4,39.7L97.4,39.7z M106.4,39.7v-0.3c0-2.3-1.1-3.6-2.9-3.6c-1.8,0-2.9,1.2-2.9,3.6v0.3
	c0,2.2,1.1,3.4,2.9,3.4C105.3,43,106.4,41.8,106.4,39.7z M113.8,39.2l-4.3-5.8h3.6l2.4,3.6l2.5-3.6h3.6l-4.3,5.8l4.5,6.3h-3.6
	l-2.8-4l-2.7,4h-3.7L113.8,39.2z"/>
</svg>
