<?xml version="1.0" encoding="utf-8"?>
<svg xmlns="http://www.w3.org/2000/svg" viewBox="0 0 68 76" fill="#304156">
<path d="M8.6,27h0.6c2.1,0,4.1,0.9,5.6,2.4c-0.5,0.6-1.1,1.1-1.6,1.6c-0.8-0.7-1.8-1.3-2.9-1.5c-1.6-0.3-3.3,0-4.7,0.9
	c-1.5,1-2.5,2.6-2.7,4.3c-0.2,1.7,0.2,3.5,1.4,4.9c1.1,1.3,2.7,2.1,4.4,2.2c1.6,0.1,3.2-0.4,4.4-1.5c0.9-0.8,1.3-2,1.5-3.1
	c-1.9,0-3.8,0-5.6,0v-2.3h7.9c0.4,2.5-0.2,5.3-2.1,7.1c-1.3,1.3-3,2-4.8,2.2c-1.7,0.2-3.5-0.2-5.1-1c-1.8-1-3.3-2.6-4-4.6
	c-0.7-1.8-0.7-3.8-0.1-5.6c0.6-1.7,1.7-3.1,3.1-4.1C5.2,27.7,6.9,27.1,8.6,27z"/>
<path d="M53.9,27.6h2.4v16.1c-0.8,0-1.6,0-2.4,0C54,38.4,53.9,33,53.9,27.6L53.9,27.6z"/>
<path d="M22.2,33.2c1.5-0.3,3.1,0,4.3,0.9c1.1,0.8,1.9,2,2.1,3.4c0.3,1.6-0.1,3.3-1.1,4.5c-1.1,1.4-2.9,2.1-4.6,2
	c-1.6-0.1-3.2-0.9-4.1-2.2c-1.1-1.4-1.3-3.4-0.7-5.1C18.6,34.9,20.3,33.5,22.2,33.2 M22.5,35.3c-0.6,0.2-1.2,0.5-1.6,1
	c-1.1,1.3-1,3.4,0.2,4.7c0.7,0.7,1.7,1,2.7,0.8c0.9-0.2,1.7-0.8,2.1-1.5c0.7-1.3,0.5-3.2-0.6-4.3C24.6,35.4,23.5,35.1,22.5,35.3
	L22.5,35.3z"/>
<path d="M34.2,33.2c1.7-0.3,3.6,0.1,4.9,1.3c2.1,1.9,2.3,5.4,0.5,7.5c-1.1,1.4-2.8,2.1-4.5,2c-1.6,0-3.3-0.9-4.2-2.2
	c-1.1-1.5-1.3-3.5-0.7-5.2C30.7,34.8,32.3,33.5,34.2,33.2 M34.5,35.3c-0.6,0.2-1.2,0.5-1.6,1c-1.1,1.3-1,3.4,0.1,4.6
	c0.7,0.7,1.8,1.1,2.8,0.9c0.9-0.2,1.7-0.8,2.1-1.5c0.7-1.4,0.5-3.2-0.6-4.3C36.5,35.4,35.5,35.1,34.5,35.3L34.5,35.3z"/>
<path d="M44.3,33.8c1.3-0.8,3-1,4.4-0.3c0.4,0.2,0.8,0.5,1.2,0.8c0-0.3,0-0.6,0-0.9c0.8,0,1.5,0,2.3,0v10
	c0,1.5-0.4,3.1-1.5,4.2c-1.2,1.2-3,1.6-4.6,1.3c-1.8-0.3-3.3-1.5-4-3.2c0.7-0.3,1.4-0.6,2.1-0.9c0.4,0.9,1.2,1.7,2.2,1.9
	s2.2-0.1,2.8-0.9c0.7-0.9,0.7-2,0.7-3.1c-0.5,0.5-1.1,1-1.8,1.1c-1.6,0.4-3.3-0.1-4.5-1.2c-1.2-1.1-1.9-2.7-1.9-4.3
	C41.7,36.6,42.8,34.8,44.3,33.8 M46.7,35.3c-0.7,0.1-1.3,0.5-1.8,1c-1.1,1.3-1.1,3.3,0,4.5c0.6,0.7,1.6,1.1,2.5,1
	c0.9-0.1,1.7-0.7,2.2-1.4c0.7-1.3,0.6-3.1-0.4-4.3C48.6,35.5,47.6,35.1,46.7,35.3L46.7,35.3z"/>
<path d="M59.3,34.4c1.4-1.3,3.4-1.7,5.2-1c1.7,0.6,2.7,2.2,3.2,3.8c-2.5,1-4.9,2-7.4,3c0.3,0.6,0.9,1.2,1.6,1.5
	c1,0.4,2.2,0.2,3-0.4c0.3-0.2,0.6-0.6,0.8-0.9c0.6,0.4,1.2,0.8,1.9,1.2c-0.9,1.3-2.4,2.3-4,2.4c-1.8,0.2-3.6-0.5-4.8-1.8
	C57,40,57.2,36.4,59.3,34.4 M60.5,36.5c-0.4,0.6-0.5,1.2-0.5,1.9c1.6-0.7,3.3-1.4,4.9-2c-0.3-0.6-0.9-1-1.6-1.1
	C62.2,35.1,61.1,35.6,60.5,36.5z"/>
</svg>
