<svg xmlns="http://www.w3.org/2000/svg" width="21.333" height="32" viewBox="0 0 21.333 32">
    <path d="M11.73 1a4.517 4.517 0 0 0-1.33 3.17c.049 2.67.412 5.337.444 8a16.57 16.57 0 0 1-1.774 7.107c-.336.63-.7 1.246-1.062 1.864l-1.067-.194a1.614 1.614 0 0 1-1.4-1.882 1.743 1.743 0 0 1 1.736-1.288l.389.038-.866-6.53a9.8 9.8 0 0 0-4.4-7.113A11.4 11.4 0 0 0 1.07 3.4v23.18h5.944a8.709 8.709 0 0 0 3.639 5.361A3.388 3.388 0 0 1 11.737 33a3.37 3.37 0 0 1 1.083-1.063 8.716 8.716 0 0 0 3.639-5.361H22.4V3.4a11.4 11.4 0 0 0-1.333.775 9.8 9.8 0 0 0-4.4 7.113l-.867 6.526.389-.038a1.745 1.745 0 0 1 1.736 1.288 1.615 1.615 0 0 1-1.4 1.882l-1.067.194a47.756 47.756 0 0 1-1.062-1.864 16.546 16.546 0 0 1-1.771-7.105c.032-2.672.4-5.337.444-8A4.523 4.523 0 0 0 11.743 1zM2.841 6.737a7.97 7.97 0 0 1 2.151 4.4l.708 5.38a3.305 3.305 0 0 0-1.861 2.064H2.835V6.739zm17.776 0v11.842h-1.006a3.3 3.3 0 0 0-1.861-2.064l.711-5.385a8 8 0 0 1 2.151-4.4zM11.73 17.563a17.4 17.4 0 0 0 1.951 3.983 4.035 4.035 0 0 0-1.951 1.181 4.049 4.049 0 0 0-1.951-1.182 17.439 17.439 0 0 0 1.951-3.982zm-8.888 2.62h1.006a3.4 3.4 0 0 0 2.489 2.282l.854.175a7.971 7.971 0 0 0-.354 2.344h-4v-4.8zm16.772 0h1.006v4.8h-4a8 8 0 0 0-.354-2.344l.854-.175a3.39 3.39 0 0 0 2.489-2.282zM8.93 23.007a2.08 2.08 0 0 1 1.909 1.976H8.617a6.5 6.5 0 0 1 .313-1.976zm5.6 0a6.487 6.487 0 0 1 .313 1.976h-2.226a2.079 2.079 0 0 1 1.91-1.976zm-5.71 3.577h2.02v3.369a7.076 7.076 0 0 1-2.02-3.369zm3.8 0h2.02a7.013 7.013 0 0 1-2.02 3.369z" transform="translate(-1.07 -1)" style="fill:#ffcf4a" data-name="Group 20033"/>
</svg>
