<svg xmlns="http://www.w3.org/2000/svg" width="23.322" height="32" viewBox="0 0 23.322 32">
    <path d="M.016 0s-.037 22.663 0 24.742 2.252 3.1 2.252 3.1L11.574 32l9.74-4.157s2.019-1.141 2.009-3.04 0-24.8 0-24.8H.016z" style="fill:#b19831"/>
    <path d="M11.03 15.014s-.034 21.174 0 23.1a3.629 3.629 0 0 0 2.07 2.863l8.6 3.842 9-3.842a3.689 3.689 0 0 0 1.845-2.81c-.009-1.755 0-23.153 0-23.153z" transform="translate(-10.121 -13.795)" style="fill:#0e2674"/>
    <path d="M19.045 23.33c.051-1.274.433-11.98.433-11.98l.051-3.237a10.153 10.153 0 0 0-.765-3.161c-.612-1.173-1.3-1.376-1.3-1.376s-1.376-.688-2.218-.178c-.663.561-.1 1.682-.1 1.682a2.886 2.886 0 0 1 .663 1.682c.051 1.019-.51.714-.51.714l-.739-.229s-1.351-.229-1.708-.229.051-.229.051-.229a2.87 2.87 0 0 0 1.555-1.249 2.416 2.416 0 0 0 .153-1.708 2.3 2.3 0 0 0-1.5-1.606 3.3 3.3 0 0 0-2.37.331A3 3 0 0 0 9.67 5.004a2.065 2.065 0 0 0 1.249 1.835s-.153.2-.765.178a3.981 3.981 0 0 0-1.3.586s-.1.051-.357-.331.1-1.325.1-1.325.892-1.071.79-1.682-.943-.918-.943-.918a2.834 2.834 0 0 0-1.886.459 5.159 5.159 0 0 0-1.529 2.778 19.857 19.857 0 0 0-.226 3.9l-.156-.175-.245.185a6.867 6.867 0 0 1 .016-1.663c.109-.5.28-2.116.28-2.116a7.348 7.348 0 0 0 .051-2.167 9.023 9.023 0 0 0-.306-1.147l-.1.739s-.1.331-.229-.076a13.6 13.6 0 0 1-.076-2.167l-.612.892a2.464 2.464 0 0 0 .051 2.294c.178.51-.357.484-.357.484a5.962 5.962 0 0 1 .382 1.3 5.667 5.667 0 0 1-.178 1.835 12.424 12.424 0 0 0 .026 1.784l-.331-.051-.51.382.615.7s-.268.7.593 1.4a1.664 1.664 0 0 0 1.112.252s.382 7.315.408 9.456a4.676 4.676 0 0 1-.153 2.217 17.237 17.237 0 0 1-.714 1.58 4.236 4.236 0 0 0 2.268-2.166 4.971 4.971 0 0 0 .229-2.6l-.357-6.117.153 1.784.51 4.766a6.878 6.878 0 0 0 .943-3.62 37.55 37.55 0 0 0-.866-4.409l.484 1.708.586 2.37.331-2.09s.28 1.1.382 1.784a14.829 14.829 0 0 1 .076 1.886L8.65 24s.076 1.784-.51 2.268-.612.867-.612.867a2.827 2.827 0 0 0 1.963-.255c.988-.542 1.015-.317 1.015-.317a2.259 2.259 0 0 0 1.121.255c.714 0 1.02-.026 1.02-.026l-.025.28s-.255.484.688.535c.255.2.459.2.612.433.28.408 1.555.229 1.555.229s.1-.663-1.1-1.2c-.357-.306-.051-.561-.051-.561a2.206 2.206 0 0 0 .714-.79 9.731 9.731 0 0 0 .639-3.561c.1-2.32-.076-5.761-.076-5.761l.229 1.249 1.019-3.466s-.433 1.759-.739 3.951a4.981 4.981 0 0 0 .892 3.645l.688-5.913-.433 6.219a5.012 5.012 0 0 0 .408 2.625 7.021 7.021 0 0 0 2.294 1.708 7.8 7.8 0 0 1-.916-3.084z"/>
    <path d="M113.411 105.169s-.325 2.045-.611 2.179-.268.057-.268.057-.057-1.2-.019-1.816.019-3.4.019-3.919-.019-1.07-.057-2.084a20.239 20.239 0 0 1 .746-3.766 23.093 23.093 0 0 1 .382 3.823 37.6 37.6 0 0 1-.192 5.526zm-6.633-12.388s.019 2.676 0 3.747a7.945 7.945 0 0 0 .631 2.581l.134-1.568s.115-1.51.076-3.135-.842-1.625-.842-1.625zm5.467-3.224s.548-.828-.038-.917-1.466-.178-1.466-.178.433.1.089.319a1.861 1.861 0 0 1-.879.2s-.9-.14-1.109-.2a2.751 2.751 0 0 0-.472-.089 1.426 1.426 0 0 0-.765.127 1.106 1.106 0 0 0-.624.637l.166.319.51.484 1.465.42 1.478.79s.166-.535.242-.548l-1.466-1.007 1.695.586a3.345 3.345 0 0 1 .268-.459c-.242-.1-1.644-.535-1.644-.535s1.032.076 1.415.076 1.135-.025 1.135-.025z" transform="translate(-98.106 -81.278)" style="fill:#350d36"/>
    <path d="M43.384 63.738 43.8 66.2a3.679 3.679 0 0 1-2.179-.267c-.172-.077-.86-.344-.229-1.224a2.7 2.7 0 0 1 1.992-.971zm-2.409 1.529a.67.67 0 0 1 .038-.287c.057-.21-.153-.076-.153-.076s-.306.153-.554.287a.521.521 0 0 0-.248.5 4.023 4.023 0 0 0-.956.612.838.838 0 0 0-.2.363 2.1 2.1 0 0 0 .583.1s.373.057.535-.134a1.381 1.381 0 0 1 .535-.306s.535-.029.5-.5a1.322 1.322 0 0 1-.08-.558zm4.837 1.854-.583-.411a.82.82 0 0 1-.277-.66c.019-.43.038-2.284.038-2.284l.019-.774a2.374 2.374 0 0 1-.4.248c-.134.048-.6.258-.784.3a.259.259 0 0 0-.2.22l.029.363 1.223-.153s.038.076 0 .076a6.164 6.164 0 0 0-1.013.545 5.4 5.4 0 0 0 .076.832 3.089 3.089 0 0 1 .01.937 1.342 1.342 0 0 0-.076.3s-.076.392.21.363a1.45 1.45 0 0 1 .669.182l.631.478s.717.363 1 .191a1.064 1.064 0 0 0-.572-.752zm-.593-3.671.1-8.22a1.468 1.468 0 0 0-.5-1.052 2.429 2.429 0 0 0-1.319-.4 15 15 0 0 0-2.007-.038.764.764 0 0 0-.631.535l-.325 3.537-.325 3.25-.268 2.886-.153 1.587a3 3 0 0 1 1.759-1.453 14.331 14.331 0 0 1 2.734-.879l.516-.1-.248-3.422-.421-5.353.134.287zM35.05 52.689l.363-.4-.707.019zm3.709 3.8-.822-4.129-.038-.421.994 2.867.478 1.682a2.477 2.477 0 0 0 .229-1.868 12.159 12.159 0 0 0-.612-1.931l-.344-1.262-2.485 1.357.171 3.116.191 3.976s.057 1.376.153 3.116a2.884 2.884 0 0 1-.688 2.389s1.453-.21 1.663-2.313a19.214 19.214 0 0 0-.057-4.034l-.306-4.416-.076-1.969.5 2.982s.44 2.887.5 3.116.153 1.931.153 1.931a4.935 4.935 0 0 0 .573-1.988 8.351 8.351 0 0 0-.178-2.197zM35.7 50.232a.886.886 0 0 1-.392.258 2.219 2.219 0 0 1-.43.048 1.606 1.606 0 0 1-.363-.029 1 1 0 0 1-.392-.267l-.315.315.363.4a1.351 1.351 0 0 1 .229-.182 1.259 1.259 0 0 1 .459-.048l.239.019a1.234 1.234 0 0 1 .344.057 2.754 2.754 0 0 1 .258.162l.354-.344zm.421.621a19.114 19.114 0 0 1 2.141-1.3c.057-.937.363-.86.363-.86l.249.153s.918-.975.975-.994a3.737 3.737 0 0 1-.765-.86 1.2 1.2 0 0 1 .1-1.319 9.546 9.546 0 0 0 .783-1.281s.058-1.51-1.089-1.128a4.134 4.134 0 0 0-1.816 1.262 7.076 7.076 0 0 0-.918 2.447 21.782 21.782 0 0 0-.134 2.581zm2.026.554s1.462-.841 1.606-.889.879-.335 1.128.182a5.479 5.479 0 0 1 .162 1.854l2.514.048a16.1 16.1 0 0 0-.335-2.055 2.387 2.387 0 0 0-1.185-1.472c-.908-.545-1.558-.956-1.558-.956s-.325-.191-.468-.268a8.1 8.1 0 0 1-.975 1.09 3.2 3.2 0 0 0-.488.688c-.048.248-.334.239-.334.239a4.423 4.423 0 0 0-.8.287c-.249.143-.784.564-.784.564s.325.621.373.707.086.268-.086.086-.564-.7-.564-.7l-.449.191a1.056 1.056 0 0 1 .277.688 2.734 2.734 0 0 1-.277.965zm11.89 2.753.268-5.41s.057-3.212-1.4-4.607c-1.051-.86-1.434-.86-1.434-.86a.875.875 0 0 0-1.07.4c-.4.669.478 1.663.478 1.663s.956.975.248 1.8a4.06 4.06 0 0 1-.459.554l.006.008a1.082 1.082 0 0 0-.866-.372s-.624-.051-1.338.879a6.835 6.835 0 0 0-.854 2.918s-.1 1.912.968 2.638 2.052-.981 2.052-.981a5.524 5.524 0 0 0 .663-3.556 3.554 3.554 0 0 0-.314-1.077l.448.65s.287-.172.44.057c.248.287.038 1.3.038 1.3s-.21 1.147-.306 1.529-.421 1.281-.421 1.281-.267.746-.325 1.013a11.556 11.556 0 0 0-.248 1.453c.019.191.267 1.109.267 1.109s.325-1.128.5-1.663 1.013-2.963 1.013-2.963l-.421 2.428s-.344 1.568-.459 2.1a11.739 11.739 0 0 0-.172 2.16 4.287 4.287 0 0 0 .593 2.007s0-.879.057-1.319.363-2.275.363-2.275l.707-4.339-.115 2.791L48.679 59a16.133 16.133 0 0 0 .076 4.626c.44 1.663 1.549 1.74 1.549 1.74a4.353 4.353 0 0 1-.669-1.415 7.142 7.142 0 0 1-.019-1.281z" transform="translate(-31.062 -39.694)" style="fill:#fff"/>
    <path d="M39.169 59.666c.181 0 .363.01.44.01s.057.182 0 .182-.44.01-.44.01-.143-.106 0-.202zm.774.287h-.832c-.162 0 .048.182.048.182a6.569 6.569 0 0 0 .784.01c.157-.03.057-.192 0-.192zm.01.258c-.124.01-.774.01-.822.01a.1.1 0 0 0 .048.182c.153.01.746.01.774.01s.124-.213 0-.202zm-.01.277c-.134 0-.65-.019-.679-.019s-.057.21.048.21.564-.009.621 0 .144-.191.01-.191zm.612-.774a.66.66 0 0 0-.363-.153 2.735 2.735 0 0 0-.449.1c-.2.048.1.181.1.181s.268.01.325.019.191.038.162.134-.029.086-.143.21a.392.392 0 0 0-.009.468s.3.143.449-.048a.657.657 0 0 0 .105-.468s-.032-.338-.177-.443zm7.666-5.671c-.038.115-.217 1.007-1.07.956-.025.127-.28.357-.28.357l-.153.229s-.064.166.242.191a2.508 2.508 0 0 0 1.2-.127l.153-.1s.035-1.506-.092-1.506zM46.749 54c.038.083.229.624.478.688s.248.006.383-.051a2.263 2.263 0 0 0 .344-.217 1 1 0 0 0 .2-.714 1.743 1.743 0 0 0-.306-.892c-.344-.605-1.109-.127-1.109-.127a1.427 1.427 0 0 0-.217.166.633.633 0 0 0-.121.4s.045.274.166.287a.86.86 0 0 1 .153-.159s.134-.057.166.032l.1.274s.019.127.057.312.179.038.179.038.134 0 .051.089-.057.1-.2.064-.1-.236-.1-.236-.083-.166-.1-.21c-.038.1-.229 0-.229 0s.067.178.105.256zm-.032-.338.006.057a.2.2 0 0 0 .114-.045c.032-.038 0-.127 0-.127h-.045a.125.125 0 0 1-.006.1.058.058 0 0 1-.069.02z" transform="translate(-35.88 -48.249)" style="fill:#ffe0aa"/>
    <path d="M132.071 44.011a.378.378 0 0 1-.063-.052 1.325 1.325 0 0 0-.836-.364h-.05l.07-.022a1.071 1.071 0 0 1 .319-.059.465.465 0 0 1 .5.25.831.831 0 0 1 .06.247zm-.452-.094a.655.655 0 0 0-.106-.02c-.028 0-.028 0 .05.1a2.6 2.6 0 0 1 .263.4.343.343 0 0 1 .046.163c0 .054.008.078.02.087.089.068.18-.164.136-.349a.523.523 0 0 0-.408-.381zm.077.582a.452.452 0 0 0 .021.092c.014.048.032.125.041.171 0 .017.006.036.008.056s0 .057 0 .094v.12a.532.532 0 0 1-.011.1.265.265 0 0 0-.011.052.448.448 0 0 0 .122-.065.192.192 0 0 0 .069-.184.521.521 0 0 0-.112-.274.735.735 0 0 0-.123-.161zm-1.39-1.486h.018v.008a.1.1 0 0 1-.007.02l-.006.013.006-.008.019-.031a.2.2 0 0 0 .014-.022.207.207 0 0 0-.033.016zm-.478.973c.019-.012.034-.029.034-.04s-.007-.019-.045-.019a.248.248 0 0 1-.08-.014.072.072 0 0 0-.03-.007h.012l-.008-.008a.1.1 0 0 1-.013-.018c0-.008 0-.008-.005 0a.177.177 0 0 0 0 .021c0 .01 0 .013.005.011a.143.143 0 0 0 .033.064.178.178 0 0 1-.014-.018c-.014-.022-.016-.018 0 .005a.131.131 0 0 0 .039.041h.009a.151.151 0 0 1-.028-.026.1.1 0 0 0 .016.016c.031.017.036.017.076-.008zm-.006-.063h-.032.031c.035 0 .041.005.041.02s-.014.029-.038.045-.017.012-.014.012a.126.126 0 0 0 .043-.027.034.034 0 0 0 .015-.026c0-.012 0-.015-.005-.021s-.01-.004-.039-.003zm.481-.86a1.36 1.36 0 0 0-.116.56v.059l-.057-.062a.364.364 0 0 1-.1-.171.26.26 0 0 0 .037.089.784.784 0 0 0 .091.109.155.155 0 0 1 .021.025.414.414 0 0 1-.036-.033.73.73 0 0 1-.045-.048.441.441 0 0 1-.073-.127.222.222 0 0 1-.014-.09.188.188 0 0 1 0-.054.49.49 0 0 1 .26-.287.209.209 0 0 1 .038-.019v.005a.888.888 0 0 0-.076.049 1.292 1.292 0 0 0-.085.066.9.9 0 0 1 .18-.122l-.023.051zm-.287.317v-.032.047l.002-.016zm.034-.142v.007a.221.221 0 0 0-.025.072.232.232 0 0 1 .026-.08zm.976-.2a2.369 2.369 0 0 0-.338.178 1.026 1.026 0 0 0-.292.289l-.027.052a.34.34 0 0 0 .018-.032.35.35 0 0 1 .036-.061l-.008.016a.5.5 0 0 0-.046.092.031.031 0 0 1 0 .01.225.225 0 0 1 0-.032 1.273 1.273 0 0 1 .039-.267.529.529 0 0 1 .134-.246c.016-.016.021-.019.025-.019s0 0 .021-.019a.407.407 0 0 1 .3-.053.732.732 0 0 1 .161.048.186.186 0 0 1 .046.023 2.3 2.3 0 0 0-.158.064l-.013.005.022-.012.059-.026c.042-.018.057-.025.06-.032a.113.113 0 0 1-.037.017zm-.613.246c-.006.022-.013.043-.018.066a1.509 1.509 0 0 0-.025.174v.03c0 .003 0 0 0 0l.006-.064a1.168 1.168 0 0 1 .038-.211zm.185-.284-.019.011a.028.028 0 0 1-.014.007l-.017.02a.35.35 0 0 1 .052-.043zm.185-.054a.29.29 0 0 0-.086.01l-.02.007a.358.358 0 0 1 .067-.015zm.209.031c.059.02.082.029.076.039a.009.009 0 0 0 0-.007.444.444 0 0 0-.14-.05.439.439 0 0 0-.105-.013.621.621 0 0 1 .17.025zm-.935.805a.026.026 0 0 1-.016.018h-.011a.165.165 0 0 1-.054.019.452.452 0 0 1-.08 0h-.019c-.085-.023-.138-.12-.138-.251a.228.228 0 0 1 .026-.127l.005-.007.01.016c.013.021.013.023 0 .011a.031.031 0 0 0-.013-.01c.008 0 .02.009.038.04a.723.723 0 0 0 .177.2c.054.044.072.065.07.08a.04.04 0 0 0-.012-.029.205.205 0 0 0-.026-.027c-.02-.016-.015-.017.007 0 .038.028.046.04.037.062zm-.31-.165a.381.381 0 0 1 0-.08.524.524 0 0 1 .008-.058.251.251 0 0 0-.006.036.375.375 0 0 0 0 .085c-.003 0-.001.005-.001.011zm.077.169-.014-.014.009.011zm.091.035a.266.266 0 0 0 .04 0 .263.263 0 0 1-.046 0zm.133-.044c0 .022-.044.038-.09.043a.21.21 0 0 0 .063-.014h.008l.008-.009a.031.031 0 0 0 .013-.025zm.142-.186c-.006.108-.006.1 0 .1s0-.029 0-.064v-.093c.01-.048.01-.013.002.051zm.862-.23a1.79 1.79 0 0 1 .183-.009 1.093 1.093 0 0 1 .395.065.47.47 0 0 0 .089.026.642.642 0 0 0-.135-.2.388.388 0 0 0-.38-.119 1.063 1.063 0 0 0-.452.28c-.033.034-.051.058-.04.054a2.5 2.5 0 0 1 .294-.091z" transform="translate(-119.163 -39.446)" style="fill:#592314"/>
    <path d="M113.034 108.879c-.09.035-.164.027-.163-.016a4.022 4.022 0 0 1 .159-.532 26.948 26.948 0 0 0 .391-7.162c-.061-.142-.1.216-.1 1a46.161 46.161 0 0 1-.394 4.848c-.025.061-.034-1.5-.02-3.476.024-3.365.042-3.653.291-4.669.16-.652.3-1.023.348-.934a13.581 13.581 0 0 1 .216 1.8c.297 3.693-.117 8.907-.728 9.141zM108 96.7a1.762 1.762 0 0 0-.017-.192c-.021-.139-.039-.086-.045.108a.235.235 0 0 0-.025.148c0 .067.011.106.024.115 0 .213.023.3.045.181a1.718 1.718 0 0 0 .019-.343L108 96.7zm-.551-2.023-.327-.35.048 2.373a11.707 11.707 0 0 0 .242 2.977c.165.516.206.57.281.366a26.962 26.962 0 0 0 .163-4.38 1.507 1.507 0 0 0-.408-.986zm3.876-4.465c0 .211-.789.428-1.306.36-.377-.05-.471-.037-.349.048s.095.117-.176.118a.762.762 0 0 1-.551-.229.531.531 0 0 0-.581-.171c-.693.112-1.164.608-.735.773.091.035.166.017.166-.041s.257.047.571.232.959.532 1.435.771c.911.458 1.061.587.561.484-.279-.058-.273-.045.083.159.212.122.4.224.41.226a.747.747 0 0 0 .139-.211c.1-.189.031-.273-.575-.681a8.917 8.917 0 0 1-.746-.537 3.142 3.142 0 0 0-.552-.309c-.433-.207-.862-.633-.75-.744a2.255 2.255 0 0 1 .587.322 10.373 10.373 0 0 0 1.267.672 3.6 3.6 0 0 1 .786.417c.089.136.453.065.507-.1.024-.073-.3-.244-.763-.405l-.806-.278 1.048-.013c.984-.012 1.071-.033 1.416-.328.238-.2.323-.342.242-.392a2.818 2.818 0 0 0-1.328-.143z" transform="translate(-98.423 -82.85)" style="fill:#7f1416"/>
    <path d="m14.619 8.199.815.14-.331 2.023 1.043.165-.14.942-1.056-.165-.306 2.163-.84-.115.293-2.163-1.183-.229.166-.929 1.234.191zM5.53 9.303a10.079 10.079 0 0 1 .4-2.2 6.028 6.028 0 0 1 1.26-1.794c.439-.458.534.172.439.4-.267.057-.076-.019-.9.535s-1.2 3.054-1.2 3.054M16.467 5.73a2.193 2.193 0 0 1 1.279.954 6.978 6.978 0 0 1 .821 2.672 8.937 8.937 0 0 0-.458-2.462 8.464 8.464 0 0 0-.859-1.2 3.789 3.789 0 0 0-.439-.4c-.248-.191-.363-.038-.382.038a2.025 2.025 0 0 0 .038.4"/>
    <path d="M121.656 33.152a.624.624 0 0 0 .083.046 1.1 1.1 0 0 0-.015-.356 1.41 1.41 0 0 0-.242-.62 4.065 4.065 0 0 1-.393-.613 1.713 1.713 0 0 1-.223-.739 1.676 1.676 0 0 1 2.9-.632 1.514 1.514 0 0 1 .431 1.62 1.245 1.245 0 0 1-.435.581l-.057.041v.094a.41.41 0 0 1-.028.143.447.447 0 0 1-.181.178c-.025.009-.043.022-.04.029a.247.247 0 0 1 .023.169.758.758 0 0 1-.022.084c-.007.019.006.016.1-.016a2.64 2.64 0 0 0 .93-.579 2.074 2.074 0 0 0 .471-.643 2.221 2.221 0 0 0 .214-1.125 2.8 2.8 0 0 0-.128-.586 2.242 2.242 0 0 0-1.147-1.263 2.092 2.092 0 0 0-1.629-.122 2.507 2.507 0 0 0-.907.537 3.049 3.049 0 0 0-.786 2.059 1.544 1.544 0 0 0 .084.515 2.293 2.293 0 0 0 .997 1.198z" transform="translate(-110.776 -26.399)" style="fill:#b49900"/>
    <path d="m124.222 160.926.081.113-.021.054a.225.225 0 0 1-.036.067 1.731 1.731 0 0 1-.389.014c-.042-.007-.052-.015-.079-.069s-.031-.077-.042-.347c-.012-.316-.009-.344.053-.419.03-.036.046-.046.079-.046s.042 0 .061.064a3.326 3.326 0 0 0 .293.569zm-2.085-.595h-.4l-.038.046a.3.3 0 0 0-.049.087 3.8 3.8 0 0 0 .013.582.322.322 0 0 0 .049.113l.037.051h.4l.027-.056a1.186 1.186 0 0 0 .052-.44c0-.191 0-.213-.064-.312zm1.416.022-.025-.034h-.191c-.182 0-.192 0-.215.027-.078.088-.082.117-.068.461.011.264.017.3.067.369l.023.034h.2a1.37 1.37 0 0 0 .212-.01c.055-.035.088-.229.089-.524 0-.151 0-.166-.032-.225a.856.856 0 0 0-.06-.098zm-.719-.035h-.4l-.037.053-.037.053v.283c0 .312.009.368.069.44l.036.044h.193c.192 0 .194 0 .217-.03a.868.868 0 0 0 .069-.411c.008-.239 0-.268-.066-.376zm-1.6 0h-.2l-.036.044a.269.269 0 0 0-.046.09 2.815 2.815 0 0 0 0 .322c.01.283.02.338.071.395.017.019.044.021.224.021.2 0 .205 0 .225-.03.046-.07.057-.142.063-.4l.006-.258-.039-.072c-.06-.122-.038-.113-.263-.109z" transform="translate(-111.133 -147.277)" style="fill:#b49900"/>
    <path d="M42.863 35.443a2.594 2.594 0 0 0-.057-.32 1.311 1.311 0 0 0-.081-.278 1.152 1.152 0 0 0-.041.112c-.067.2-.148.31-.228.31a.261.261 0 0 1-.129-.059.849.849 0 0 1-.142-.208 2.483 2.483 0 0 1-.21-.745 5.279 5.279 0 0 1 0-.8.64.64 0 0 0 .01-.113.22.22 0 0 0-.048.059 2.247 2.247 0 0 0-.341.827 1.627 1.627 0 0 0-.028.39v.25l.146.734a2.822 2.822 0 0 1 .132.881l-.147-.064a2.67 2.67 0 0 0-.165-.069.3.3 0 0 0 .036.087 4.27 4.27 0 0 1 .184.426c.033.092.077.241.1.335a17.888 17.888 0 0 1-.158 2.623 2.937 2.937 0 0 0-.032.543 2.146 2.146 0 0 0 .145.738c.021.057.053.135.073.174a.382.382 0 0 0 .04.07c.008 0 .5-.258.51-.268a.986.986 0 0 0-.009-.2 6.4 6.4 0 0 1-.03-1.081c.031-.376.154-1.263.219-1.573s.209-1.237.256-1.651a5.528 5.528 0 0 0-.005-1.13z" transform="translate(-38.162 -30.636)" style="fill:#b49900"/>
    <path d="m163.367 103.023.558.087-.283 2.017 1.148.194-.066.581-1.175-.2-.344 2.13-.579-.051.331-2.117-1.11-.207.062-.571 1.133.145z" transform="translate(-148.705 -94.657)" style="fill:#b49900"/>
    <path d="M11.307 6.166c-.019.045.1.038.1.038s.1-.07.166-.121a.247.247 0 0 1 .14-.051.179.179 0 0 0-.166-.064 1.522 1.522 0 0 0-.267.1s-.108.14.032.1M11.925 4.95a.478.478 0 0 0-.242-.115.694.694 0 0 0-.325.07.8.8 0 0 0-.184.089.088.088 0 0 0-.013.14.416.416 0 0 0 .4.153c.242-.057.242-.242.242-.242h.14a.084.084 0 0 0-.018-.095zm-.28.223a.509.509 0 0 1-.2.038V5.16a.253.253 0 0 0 .159-.032.2.2 0 0 0 .07-.108l.051-.006s-.023.121-.08.159z"/>
    <path d="M116.74 90.765a.61.61 0 0 1-.051-.138s.19.111.42.25l.426.256h-.051a2.06 2.06 0 0 1-.338-.046.669.669 0 0 1-.226-.1.629.629 0 0 1-.18-.222zm2.066 1.507a9.015 9.015 0 0 1-2.564-1.379c.083.092-.106.607 2.564 1.378zm-.357.687s-.016 0-.1-.023c-.327-.09-.682-.206-.962-.314a4.515 4.515 0 0 1-1.337-.768 6.746 6.746 0 0 1-.3-.274l-.041-.042-.029-.032a.209.209 0 0 1-.026-.032l.389.226.506.295.121.07c.338.184.93.508.933.507s.441.2.637.292zm-2.508-1.271h-.005zm5.3 9.839a38.35 38.35 0 0 1-.677 7.651c.39.083 1.086-5.067.68-7.652z" transform="translate(-106.266 -83.268)" style="fill:#a81f23"/>
</svg>
