<?xml version="1.0" encoding="utf-8"?>
<svg xmlns="http://www.w3.org/2000/svg" viewBox="0 0 58 76" fill="#304156">
	<path d="M6.1,36.8c-1.2-0.5-1.9-0.8-1.9-1.4c0-0.5,0.4-0.8,1.1-0.8c1.3,0,2.6,0.5,3.5,0.9l0.5-3.2
		c-0.7-0.3-2.2-0.9-4.2-0.9c-1.4,0-2.6,0.4-3.5,1.1c-0.9,0.7-1.3,1.8-1.3,3.1C0.2,38,1.7,39,4,39.8c1.5,0.5,2,0.9,2,1.5
		c0,0.6-0.5,0.9-1.3,0.9c-1.1,0-2.9-0.5-4-1.2l-0.5,3.2c1,0.6,2.8,1.1,4.7,1.1c1.5,0,2.8-0.4,3.6-1c1-0.8,1.5-1.9,1.5-3.3
		C9.9,38.6,8.5,37.6,6.1,36.8L6.1,36.8z M18.2,34.9l0.5-3.1h-2.7V28l-3.6,0.6l-0.5,3.2L10.6,32l-0.5,2.9h1.8v6.2
		c0,1.6,0.4,2.7,1.2,3.4c0.7,0.6,1.7,0.8,3.1,0.8c1.1,0,1.8-0.2,2.2-0.3v-3.3c-0.3,0.1-0.8,0.2-1.2,0.2c-0.8,0-1.2-0.4-1.2-1.4v-5.6
		H18.2L18.2,34.9z M26.4,31.6c-1.2,0-2.2,0.6-2.5,1.8l-0.3-1.6h-3.7v13.3h4.2v-8.6c0.5-0.6,1.3-0.9,2.3-0.9c0.2,0,0.5,0,0.8,0.1
		v-3.9C26.9,31.6,26.6,31.6,26.4,31.6z M30.3,30.5c1.2,0,2.2-1,2.2-2.2c0-1.2-1-2.2-2.2-2.2c-1.2,0-2.2,1-2.2,2.2
		C28.1,29.5,29.1,30.5,30.3,30.5L30.3,30.5z M28.2,31.8h4.3v13.3h-4.3V31.8z M44.5,33c-0.8-1-1.8-1.5-3.1-1.5
		c-1.2,0-2.3,0.5-3.3,1.6l-0.2-1.3h-3.7V50l4.2-0.7V45c0.6,0.2,1.3,0.3,1.9,0.3c1.1,0,2.6-0.3,3.8-1.6c1.1-1.2,1.7-3.2,1.7-5.7
		C45.8,35.8,45.4,34.1,44.5,33L44.5,33z M41,41.2c-0.3,0.6-0.9,1-1.5,1c-0.4,0-0.8-0.1-1.1-0.3v-6.3c0.7-0.8,1.4-0.8,1.6-0.8
		c1.1,0,1.6,1.2,1.6,3.4C41.6,39.5,41.4,40.5,41,41.2L41,41.2z M57.9,38.3c0-2.1-0.5-3.8-1.4-5c-0.9-1.2-2.3-1.8-4.1-1.8
		c-3.6,0-5.8,2.7-5.8,6.9c0,2.4,0.6,4.2,1.8,5.3c1.1,1,2.6,1.5,4.5,1.5c1.8,0,3.5-0.4,4.5-1.1l-0.5-2.9c-1,0.6-2.3,0.9-3.6,0.9
		c-0.8,0-1.4-0.2-1.8-0.5c-0.4-0.4-0.7-1-0.8-1.9h7C57.9,39.6,57.9,38.6,57.9,38.3L57.9,38.3z M50.8,37.2c0.1-1.9,0.6-2.8,1.6-2.8
		c1,0,1.5,0.9,1.5,2.8H50.8z"/>
</svg>
