<?xml version="1.0" encoding="utf-8"?>
<svg xmlns="http://www.w3.org/2000/svg" viewBox="0 0 68 76" fill="#304156">
<path d="M11.3,31h2.6v8.2c0,4.3-2.8,5.8-6.7,5.8c-4,0-6.7-1.5-6.7-5.8v-7.9c0-0.2,0.1-0.3,0.3-0.3h2.6v8.1c0,2.6,1.1,3.6,3.8,3.6
	c2.7,0,3.8-1.1,3.8-3.6v-7.7C11,31.1,11.1,31,11.3,31z M40.6,33.2v3.5h6.5c0.1,0,0.2,0.1,0.1,0.2l-0.7,1.8c-0.1,0.2-0.2,0.2-0.4,0.2
	h-3.8c-1.3,0-1.7,0.4-1.7,1.2v2.4h8.8c0.1,0,0.2,0.1,0.1,0.2l-0.7,1.8c-0.1,0.2-0.2,0.2-0.4,0.2h-9.7c-0.7,0-1-0.3-1-0.8V32
	c0-0.7,0.4-1,1.3-1h10.4c0.1,0,0.2,0.1,0.1,0.2L48.8,33c-0.1,0.2-0.2,0.2-0.4,0.2H40.6z M32.4,41c0,2.8-1.9,3.8-4.7,3.8h-7.2
	c-0.8,0-1-0.3-1-0.8V32c0-0.7,0.4-1,1.3-1h5.9c2.6,0,5,0.4,5,3.5c0,1.3-0.5,2.4-1.6,3C31.7,37.9,32.4,39.3,32.4,41z M22.3,36.7h4.6
	c1.5,0,1.9-0.6,1.9-1.8c0-1.2-0.4-1.8-1.9-1.8h-4.6V36.7z M29.5,40.7c0-1.3-0.4-1.9-2.1-1.9H24c-1.3,0-1.7,0.4-1.7,1.2v2.6h5.1
	C29,42.6,29.5,41.9,29.5,40.7z M67.4,44.8h-2.6c-0.2,0-0.3-0.1-0.4-0.2l-2.8-5H59c-1.3,0-1.7,0.4-1.7,1.2v4h-2.5
	c-0.2,0-0.3-0.1-0.3-0.3V32c0-0.7,0.4-1,1.3-1h5.9c3.4,0,5.5,0.9,5.5,4.2c0,2.6-1.2,3.6-2.8,4l3.1,5.3
	C67.6,44.6,67.6,44.8,67.4,44.8z M64.3,35.3c0-1.4-0.4-2.1-2.2-2.1h-4.8v4.2h4.8C63.9,37.4,64.3,36.7,64.3,35.3z"/>
</svg>
