<?xml version="1.0" encoding="utf-8"?>
<!-- Generator: Adobe Illustrator 24.2.3, SVG Export Plug-In . SVG Version: 6.00 Build 0)  -->
<svg version="1.1" id="Layer_1" xmlns="http://www.w3.org/2000/svg" xmlns:xlink="http://www.w3.org/1999/xlink" x="0px" y="0px"
	 viewBox="0 0 16 16" style="enable-background:new 0 0 16 16;" xml:space="preserve">
<style type="text/css">
	.st0{fill:#304156;}
</style>
<path class="st0" d="M7.999,15.75c-0.145,0-0.29-0.042-0.416-0.126c-0.248-0.165-6.061-4.097-6.061-8.897
	C1.523,3.155,4.429,0.25,8,0.25c3.571,0,6.477,2.906,6.477,6.477c0,4.8-5.814,8.732-6.062,8.897
	C8.289,15.708,8.144,15.75,7.999,15.75z M8,1.75c-2.744,0-4.977,2.233-4.978,4.977c0,3.333,3.711,6.4,4.977,7.349
	c1.266-0.949,4.978-4.017,4.978-7.349C12.977,3.983,10.744,1.75,8,1.75z"/>
<path class="st0" d="M7.999,9.387c-1.466,0-2.659-1.193-2.659-2.66s1.193-2.659,2.659-2.659c1.466,0,2.659,1.193,2.659,2.659
	S9.465,9.387,7.999,9.387z M7.999,5.568c-0.639,0-1.159,0.52-1.159,1.159s0.52,1.159,1.159,1.159s1.159-0.52,1.159-1.159
	S8.638,5.568,7.999,5.568z"/>
</svg>
