<?xml version="1.0" encoding="utf-8"?><svg width="80" height="80" viewBox="0 0 80 80" xmlns="http://www.w3.org/2000/svg" xmlns:xlink="http://www.w3.org/1999/xlink"><view id="arrowBack" viewBox="67 60 12 12"/><svg viewBox="0 0 12 12" width="12" height="12" x="67" y="60" xmlns="http://www.w3.org/2000/svg"><path d="M11.424 5.559H2.431l3.787-3.786-.707-.708L.576 6l4.935 4.934.707-.707-3.669-3.668h8.875z"/></svg><view id="bell" viewBox="0 0 20 20"/><svg viewBox="0 0 20 20" width="20" height="20" xmlns="http://www.w3.org/2000/svg"><path d="M16.747 15.556H3.192c-.531 0-1-.263-1.255-.703-.267-.46-.26-1.027.02-1.516l.768-1.155c1.066-1.599 1.653-3.611 1.653-5.663 0-2.437 1.503-4.618 3.694-5.42a2.253 2.253 0 013.871-.001c2.19.802 3.694 2.983 3.694 5.42 0 2.052.587 4.063 1.654 5.663l.741 1.111c.284.426.304.984.051 1.456a1.514 1.514 0 01-1.336.808zm0-1.482l.051.041-.741-1.111c-1.227-1.841-1.902-4.144-1.902-6.485 0-1.902-1.213-3.589-2.951-4.104a.742.742 0 01-.483-.45.78.78 0 00-.714-.483.78.78 0 00-.714.482.742.742 0 01-.483.45c-1.738.515-2.951 2.203-2.951 4.104 0 2.342-.676 4.645-1.902 6.485l-.741 1.111 13.531-.04zM10.007 20a2.93 2.93 0 01-2.963-2.963h1.481c0 .845.637 1.481 1.481 1.481.845 0 1.481-.637 1.481-1.481h1.481A2.928 2.928 0 0110.007 20z"/></svg><view id="checkAsem" viewBox="52 60 15 15"/><svg fill="#8CD31A" viewBox="0 0 15 15" width="15" height="15" x="52" y="60" xmlns="http://www.w3.org/2000/svg"><path d="M7.5 15A7.5 7.5 0 1115 7.5 7.51 7.51 0 017.5 15zM4.364 6.275L3.108 7.531l2.515 2.515L6.878 11.3l1.257-1.257 4.4-4.4-1.256-1.254-4.4 4.4-2.515-2.514z"/></svg><view id="iconEllipsis" viewBox="20 0 20 20"/><svg viewBox="0 0 20 20" width="20" height="20" x="20" xmlns="http://www.w3.org/2000/svg"><circle cx="10" cy="10" r="2"/><circle cx="4" cy="10" r="2"/><circle cx="16" cy="10" r="2"/></svg><view id="iconGrid" viewBox="20 60 16 16"/><svg viewBox="0 0 16 16" width="16" height="16" x="20" y="60" xmlns="http://www.w3.org/2000/svg"><path d="M6.5 7.25h-5a.75.75 0 01-.75-.75v-5A.75.75 0 011.5.75h5a.75.75 0 01.75.75v5a.75.75 0 01-.75.75zm-4.25-1.5h3.5v-3.5h-3.5v3.5zm12.25 1.5h-5a.75.75 0 01-.75-.75v-5A.75.75 0 019.5.75h5a.75.75 0 01.75.75v5a.75.75 0 01-.75.75zm-4.25-1.5h3.5v-3.5h-3.5v3.5zm4.25 9.5h-5a.75.75 0 01-.75-.75v-5a.75.75 0 01.75-.75h5a.75.75 0 01.75.75v5a.75.75 0 01-.75.75zm-4.25-1.5h3.5v-3.5h-3.5v3.5zm-3.75 1.5h-5a.75.75 0 01-.75-.75v-5a.75.75 0 01.75-.75h5a.75.75 0 01.75.75v5a.75.75 0 01-.75.75zm-4.25-1.5h3.5v-3.5h-3.5v3.5z"/></svg><view id="iconList" viewBox="36 60 16 16"/><svg viewBox="0 0 16 16" width="16" height="16" x="36" y="60" xmlns="http://www.w3.org/2000/svg"><path d="M14.875 3.193H5.456a.75.75 0 010-1.5h9.418a.75.75 0 01.001 1.5zm0 5.557H5.456a.75.75 0 110-1.5h9.418a.75.75 0 01.001 1.5zm0 5.557H5.456a.75.75 0 010-1.5h9.418a.75.75 0 01.001 1.5zM1.125 3.193a.75.75 0 01-.53-1.28c.28-.28.78-.28 1.06 0 .07.07.13.15.16.24a.75.75 0 01-.69 1.04zm0 5.56a.75.75 0 01-.53-.22.716.716 0 01-.16-.25.732.732 0 01.16-.81c.28-.28.78-.28 1.06 0a.75.75 0 01-.53 1.28zm0 5.549a.71.71 0 01-.53-.21.748.748 0 01-.16-.25.728.728 0 01.16-.81c.28-.28.78-.28 1.06 0a.726.726 0 01.16.81.947.947 0 01-.16.25.736.736 0 01-.53.21z"/></svg><view id="menuIconBlocks" viewBox="0 20 20 20"/><svg viewBox="0 0 20 20" width="20" height="20" y="20" xmlns="http://www.w3.org/2000/svg"><path d="M9.999 11.25a.741.741 0 01-.354-.089l-6.999-3.75a.75.75 0 010-1.322l6.999-3.75a.749.749 0 01.709 0l7 3.75a.752.752 0 01-.001 1.322l-7 3.75a.741.741 0 01-.354.089zm-5.411-4.5l5.411 2.899 5.412-2.899-5.412-2.899L4.588 6.75zm5.411 11a.741.741 0 01-.354-.089l-6.999-3.75a.75.75 0 01.708-1.323L10 16.149l6.646-3.561a.75.75 0 11.709 1.323l-7 3.75a.754.754 0 01-.356.089z"/><path d="M9.999 14.333a.741.741 0 01-.354-.089l-6.999-3.75a.75.75 0 01.708-1.323L10 12.732l6.646-3.561a.75.75 0 01.709 1.323l-7 3.75a.754.754 0 01-.356.089z"/></svg><view id="menuIconDashboard" viewBox="20 20 20 20"/><svg viewBox="0 0 20 20" width="20" height="20" x="20" y="20" xmlns="http://www.w3.org/2000/svg"><path d="M15 2.25H5A2.752 2.752 0 002.25 5v10A2.752 2.752 0 005 17.75h10A2.752 2.752 0 0017.75 15V5A2.752 2.752 0 0015 2.25zM5 3.75h10c.689 0 1.25.561 1.25 1.25v1.917H3.75V5c0-.689.561-1.25 1.25-1.25zM3.75 15V8.417h3.167v7.833H5c-.689 0-1.25-.561-1.25-1.25zM15 16.25H8.417V8.417h7.833V15c0 .689-.561 1.25-1.25 1.25z"/></svg><view id="menuIconExpand" viewBox="40 0 20 20"/><svg viewBox="0 0 20 20" width="20" height="20" x="40" xmlns="http://www.w3.org/2000/svg"><path d="M13.729 3.083a.75.75 0 00-.75.75V9.25H5.081l1.784-1.784a.75.75 0 10-1.061-1.061L2.741 9.47a.733.733 0 00-.213.496c-.001.012-.007.022-.007.034 0 .012.006.022.007.034a.75.75 0 00.051.252.749.749 0 00.162.244l3.064 3.064a.75.75 0 101.061-1.061L5.082 10.75h7.898v5.417a.75.75 0 001.5 0V3.833a.752.752 0 00-.751-.75zm3 0a.75.75 0 00-.75.75v12.333a.75.75 0 001.5 0V3.833a.75.75 0 00-.75-.75z"/></svg><view id="menuIconMoon" viewBox="40 20 20 20"/><svg viewBox="0 0 20 20" width="20" height="20" x="40" y="20" xmlns="http://www.w3.org/2000/svg"><path d="M10.028 17.751a7.715 7.715 0 01-5.987-2.804A7.716 7.716 0 012.282 9.27 7.766 7.766 0 019.3 2.252a.749.749 0 01.672 1.193 4.713 4.713 0 00.985 6.582 4.679 4.679 0 005.597 0 .75.75 0 011.192.672 7.713 7.713 0 01-2.771 5.258 7.696 7.696 0 01-4.947 1.794zM7.942 4.072a6.27 6.27 0 00-4.165 5.337 6.227 6.227 0 001.419 4.58 6.219 6.219 0 004.243 2.234 6.21 6.21 0 004.58-1.419 6.22 6.22 0 001.909-2.742 6.163 6.163 0 01-5.862-.829C7.792 9.552 7 6.6 7.942 4.072z"/></svg><view id="menuIconOrgs" viewBox="0 40 20 20"/><svg viewBox="0 0 20 20" width="20" height="20" y="40" xmlns="http://www.w3.org/2000/svg"><path d="M16.744 4.782l-5.572-3.185a2.347 2.347 0 00-2.341-.002L3.254 4.78a2.35 2.35 0 00-1.176 2.032v6.376a2.347 2.347 0 001.178 2.029l5.576 3.187c.362.209.767.312 1.172.312a2.34 2.34 0 001.168-.311l5.583-3.191a2.35 2.35 0 001.167-2.027V6.811a2.35 2.35 0 00-1.178-2.029zM9.578 2.896a.856.856 0 01.847.002l5.214 2.98L10 9.141 4.358 5.877l5.22-2.981zm-5.577 11.02a.846.846 0 01-.423-.729V7.159L9.25 10.44v6.475l-5.249-2.999zm12.005-.001L10.75 16.92v-6.48l5.672-3.281v6.028c0 .3-.161.58-.416.728z"/></svg><view id="menuIconReports" viewBox="20 40 20 20"/><svg viewBox="0 0 20 20" width="20" height="20" x="20" y="40" xmlns="http://www.w3.org/2000/svg"><path d="M15 2.25H5A2.752 2.752 0 002.25 5v10A2.752 2.752 0 005 17.75h10A2.752 2.752 0 0017.75 15V5A2.752 2.752 0 0015 2.25zM16.25 15c0 .689-.561 1.25-1.25 1.25H5c-.689 0-1.25-.561-1.25-1.25V5c0-.689.561-1.25 1.25-1.25h10c.689 0 1.25.561 1.25 1.25v10z"/><path class="lst0" d="M10 8.917a.75.75 0 00-.75.75V14a.75.75 0 001.5 0V9.667a.75.75 0 00-.75-.75zm3.5-3a.75.75 0 00-.75.75V14a.75.75 0 001.5 0V6.667a.75.75 0 00-.75-.75zm-7 6a.75.75 0 00-.75.75V14a.75.75 0 001.5 0v-1.333a.75.75 0 00-.75-.75z"/></svg><view id="menuIconServices" viewBox="40 40 20 20"/><svg viewBox="0 0 20 20" width="20" height="20" x="40" y="40" xmlns="http://www.w3.org/2000/svg"><path d="M9.991 1.667A8.333 8.333 0 1018.333 10a8.329 8.329 0 00-8.325-8.333h-.017zm6.233 5.967l-4.175-.358-1.666-3.926a6.688 6.688 0 015.841 4.284zm-4.225 5.217l-2-1.2-1.992 1.2.525-2.267-1.758-1.525 2.317-.2.908-2.142.908 2.133 2.317.2-1.758 1.525.533 2.276zM9.616 3.35L7.949 7.284l-4.183.358a6.674 6.674 0 015.85-4.292zM3.333 10c0-.523.065-1.043.192-1.55l3.158 2.733-.925 3.958A6.653 6.653 0 013.333 10zm3.2 5.683L10 13.591l3.466 2.084a6.579 6.579 0 01-6.933.008zm7.708-.542l-.925-3.958 3.158-2.733c.124.507.188 1.028.192 1.55a6.677 6.677 0 01-2.425 5.142v-.001z"/></svg><view id="menuIconSun" viewBox="60 0 20 20"/><svg viewBox="0 0 20 20" width="20" height="20" x="60" xmlns="http://www.w3.org/2000/svg"><path d="M10 13.458c-1.777 0-3.223-1.445-3.223-3.223S8.223 7.012 10 7.012s3.223 1.446 3.223 3.224-1.446 3.222-3.223 3.222zm0-4.946a1.724 1.724 0 10.001 3.445A1.724 1.724 0 0010 8.512zm0-2.941a.75.75 0 01-.75-.75V3a.75.75 0 011.5 0v1.821a.75.75 0 01-.75.75zm0 12.179a.75.75 0 01-.75-.75v-1.306a.75.75 0 011.5 0V17a.75.75 0 01-.75.75zM6.191 7.13a.744.744 0 01-.53-.22l-.927-.927a.75.75 0 111.061-1.061l.926.928a.75.75 0 01-.53 1.28zm8.545 8.441a.744.744 0 01-.53-.22l-.928-.928a.75.75 0 111.061-1.061l.928.928a.75.75 0 01-.531 1.281zm-10.43-4.579H3a.75.75 0 010-1.5h1.306a.75.75 0 010 1.5zm12.694 0h-1.306a.75.75 0 010-1.5H17a.75.75 0 010 1.5zM5.264 15.571a.75.75 0 01-.53-1.281l.927-.928a.75.75 0 111.061 1.061l-.927.928a.748.748 0 01-.531.22zm8.545-8.441a.75.75 0 01-.53-1.281l.928-.927a.75.75 0 111.061 1.061l-.929.927a.747.747 0 01-.53.22z"/></svg><view id="passEye" viewBox="60 20 20 20"/><svg viewBox="0 0 20 20" width="20" height="20" x="60" y="20" xmlns="http://www.w3.org/2000/svg"><path d="M1.8 10s3-6 8.2-6 8.2 6 8.2 6-3 6-8.2 6-8.2-6-8.2-6z"/><ellipse cx="10" cy="10" rx="2.3" ry="2.2"/></svg><view id="rangeIcon" viewBox="60 40 20 20"/><svg viewBox="0 0 20 20" width="20" height="20" x="60" y="40" xmlns="http://www.w3.org/2000/svg"><path d="M6.919 14.286h-5.49V16h6.589v-1.714H6.919zm4.616-5.143H1.429v1.714h12.129V9.143h-2.023zM15.715 4H1.429v1.714h17.143V4h-2.857z"/></svg><view id="search" viewBox="0 60 20 20"/><svg viewBox="0 0 20 20" width="20" height="20" y="60" xmlns="http://www.w3.org/2000/svg"><path d="M18.375 17.314l-3.358-3.358a7.823 7.823 0 001.8-5c0-4.335-3.526-7.861-7.861-7.861S1.095 4.621 1.095 8.956s3.526 7.861 7.861 7.861a7.826 7.826 0 005.001-1.8l3.358 3.358a.748.748 0 001.06 0 .75.75 0 000-1.061zM2.595 8.956c0-3.508 2.854-6.361 6.361-6.361s6.361 2.854 6.361 6.361a6.34 6.34 0 01-1.848 4.477c-.006.006-.015.008-.021.014-.006.006-.008.015-.014.021a6.338 6.338 0 01-4.477 1.849 6.368 6.368 0 01-6.362-6.361z"/></svg></svg>