<?xml version="1.0" encoding="utf-8"?><svg width="148" height="146" viewBox="0 0 148 146" xmlns="http://www.w3.org/2000/svg" xmlns:xlink="http://www.w3.org/1999/xlink"><view id="arrowBack" viewBox="81 116 12 12"/><svg viewBox="0 0 12 12" width="12" height="12" x="81" y="116" xmlns="http://www.w3.org/2000/svg"><path d="M11.424 5.559H2.431l3.787-3.786-.707-.708L.576 6l4.935 4.934.707-.707-3.669-3.668h8.875z"/></svg><view id="bell" viewBox="76 0 20 20"/><svg viewBox="0 0 20 20" width="20" height="20" x="76" xmlns="http://www.w3.org/2000/svg"><path d="M16.747 15.556H3.192c-.531 0-1-.263-1.255-.703-.267-.46-.26-1.027.02-1.516l.768-1.155c1.066-1.599 1.653-3.611 1.653-5.663 0-2.437 1.503-4.618 3.694-5.42a2.253 2.253 0 013.871-.001c2.19.802 3.694 2.983 3.694 5.42 0 2.052.587 4.063 1.654 5.663l.741 1.111c.284.426.304.984.051 1.456a1.514 1.514 0 01-1.336.808zm0-1.482l.051.041-.741-1.111c-1.227-1.841-1.902-4.144-1.902-6.485 0-1.902-1.213-3.589-2.951-4.104a.742.742 0 01-.483-.45.78.78 0 00-.714-.483.78.78 0 00-.714.482.742.742 0 01-.483.45c-1.738.515-2.951 2.203-2.951 4.104 0 2.342-.676 4.645-1.902 6.485l-.741 1.111 13.531-.04zM10.007 20a2.93 2.93 0 01-2.963-2.963h1.481c0 .845.637 1.481 1.481 1.481.845 0 1.481-.637 1.481-1.481h1.481A2.928 2.928 0 0110.007 20z"/></svg><view id="editAdd" viewBox="52 0 24 24"/><svg viewBox="0 0 24 24" width="24" height="24" x="52" xmlns="http://www.w3.org/2000/svg"><path d="M12 4.5c-4.1 0-7.5 3.4-7.5 7.5s3.4 7.5 7.5 7.5 7.5-3.4 7.5-7.5-3.4-7.5-7.5-7.5zm0 14c-3.6 0-6.5-2.9-6.5-6.5S8.4 5.5 12 5.5s6.5 2.9 6.5 6.5-2.9 6.5-6.5 6.5z"/><path d="M14.8 11.5h-2.3V9.2c0-.3-.2-.5-.5-.5s-.5.2-.5.5v2.3H9.2c-.3 0-.5.2-.5.5s.2.5.5.5h2.3v2.3c0 .3.2.5.5.5s.5-.2.5-.5v-2.3h2.3c.3 0 .5-.2.5-.5s-.2-.5-.5-.5z"/></svg><view id="editCancel" viewBox="52 24 24 24"/><svg viewBox="0 0 24 24" width="24" height="24" x="52" y="24" xmlns="http://www.w3.org/2000/svg"><path d="M12 0C5.4 0 0 5.4 0 12s5.4 12 12 12 12-5.4 12-12S18.6 0 12 0zm5.4 16L16 17.4l-4-4-4 4L6.6 16l4-4-4-4L8 6.6l4 4 4-4L17.4 8l-4 4 4 4z"/></svg><view id="editChange" viewBox="0 52 24 24"/><svg viewBox="0 0 24 24" width="24" height="24" y="52" xmlns="http://www.w3.org/2000/svg"><path d="M16.6 19.5H6.9c-1 0-1.9-.8-1.9-1.9V7.9C5 6.9 5.8 6 6.9 6h4.9c.3 0 .5.2.5.5s-.3.5-.5.5H6.9c-.5 0-.9.4-.9.9v9.7c0 .5.4.9.9.9h9.7c.5 0 .9-.4.9-.9v-4.8c0-.3.2-.5.5-.5s.5.2.5.5v4.9c0 1.1-.8 1.8-1.9 1.8z"/><path d="M9.7 15.3c-.1 0-.3-.1-.4-.1-.1-.1-.2-.3-.1-.5l.7-2.8c0-.1.1-.1.1-.2l6.6-6.6c.4-.3.9-.6 1.4-.6.5 0 1 .2 1.4.6.8.8.8 2 0 2.8l-6.6 6.6c-.1.1-.1.1-.2.1l-2.8.7h-.1zm1.1-2.9l-.4 1.9 1.8-.5 6.5-6.5c.4-.4.4-1 0-1.4-.2-.2-.4-.3-.7-.3-.3 0-.5.1-.7.3l-6.5 6.5zm1.7 1.8z"/></svg><view id="editSave" viewBox="24 52 24 24"/><svg viewBox="0 0 24 24" width="24" height="24" x="24" y="52" xmlns="http://www.w3.org/2000/svg"><path d="M12 0C5.4 0 0 5.4 0 12s5.4 12 12 12 12-5.4 12-12S18.6 0 12 0zm-1.6 17.5L4.9 12l1.4-1.4 4.1 4.1 6.9-7.5 1.5 1.4-8.4 8.9z"/></svg><view id="editTrash" viewBox="48 52 24 24"/><svg viewBox="0 0 24 24" width="24" height="24" x="48" y="52" xmlns="http://www.w3.org/2000/svg"><path d="M18.3 7.3h-3v-.9c0-1-.9-1.9-1.9-1.9h-2.8c-1 0-1.9.9-1.9 1.9v.9h-3c-.3 0-.5.2-.5.5s.2.5.5.5h.9v9.3c0 1 .9 1.9 1.9 1.9h7c1 0 1.9-.9 1.9-1.9V8.3h.9c.3 0 .5-.2.5-.5s-.2-.5-.5-.5zm-8.6-.9c0-.5.4-.9.9-.9h2.8c.5 0 .9.4.9.9v.9H9.7v-.9zm6.7 11.2c0 .5-.4.9-.9.9h-7c-.5 0-.9-.4-.9-.9V8.3h8.8v9.3z"/><path d="M10.8 11.1c-.3 0-.5.2-.5.5v3.8c0 .3.2.5.5.5s.5-.2.5-.5v-3.8c0-.3-.2-.5-.5-.5zm2.8 0c-.3 0-.5.2-.5.5v3.8c0 .3.2.5.5.5s.5-.2.5-.5v-3.8c0-.3-.2-.5-.5-.5z"/></svg><view id="iconAdmin" viewBox="116 40 18 18"/><svg viewBox="0 0 18 18" width="18" height="18" x="116" y="40" xmlns="http://www.w3.org/2000/svg"><path d="M9 18c-.2 0-.3 0-.4-.1-.3-.1-7-3.5-7-8.9V3.4c0-.4.3-.8.6-.9L8.6.1c.3-.1.5-.1.8 0l6.4 2.4c.4.1.6.5.6.9V9c0 5.4-6.7 8.8-7 8.9-.1.1-.2.1-.4.1zM3.6 4.1V9c0 3.4 4 6.1 5.4 6.9 1.4-.8 5.4-3.4 5.4-6.9V4.1L9 2.1l-5.4 2z"/><path d="M12.7 14c-.1 0-.3 0-.4-.1-1-.5-2.1-.8-3.3-.7-1.2 0-2.3.3-3.3.7-.5.2-1.1 0-1.3-.5-.2-.5 0-1.1.5-1.3 1.3-.6 2.7-.9 4.2-.9 1.4 0 2.9.3 4.2.9.5.2.7.8.5 1.3-.3.4-.7.6-1.1.6zM9 10c-1.7 0-3-1.3-3-3s1.3-3 3-3 3 1.3 3 3-1.3 3-3 3zm0-4c-.6 0-1 .4-1 1s.4 1 1 1 1-.4 1-1-.4-1-1-1z"/></svg><view id="iconCO2" viewBox="93 116 12 12"/><svg viewBox="0 0 12 12" fill="#8CFF52" width="12" height="12" x="93" y="116" xmlns="http://www.w3.org/2000/svg"><path d="M6.92 7.016V2.87a.92.92 0 00-1.841 0v4.146a1.657 1.657 0 101.841 0z"/></svg><view id="iconColdWater" viewBox="105 116 12 12"/><svg viewBox="0 0 12 12" fill="#46D4FF" width="12" height="12" x="105" y="116" xmlns="http://www.w3.org/2000/svg"><path d="M6 10.5c-.999 0-1.997-.38-2.757-1.14C2.506 8.624 2.1 7.646 2.1 6.604s.405-2.021 1.142-2.758l2.047-2.052a.997.997 0 01.707-.294h.001c.265 0 .519.105.707.292l2.054 2.051a3.905 3.905 0 01.001 5.516A3.89 3.89 0 016 10.5zm-.003-6.585l-1.34 1.343c-.36.36-.558.837-.557 1.345a1.902 1.902 0 003.244 1.343c.74-.741.74-1.947-.001-2.688L5.997 3.915z"/></svg><view id="iconCopy" viewBox="76 20 20 20"/><svg viewBox="0 0 20 20" width="20" height="20" x="76" y="20" xmlns="http://www.w3.org/2000/svg"><path d="M1 10.012a8.612 8.612 0 002.625 6.302A8.694 8.694 0 0010 18.938a8.19 8.19 0 003.899-.952l-.981-2.035a5.826 5.826 0 01-2.918.76 6.415 6.415 0 01-4.684-1.966 6.524 6.524 0 01-1.962-4.733 6.462 6.462 0 011.937-4.733 6.356 6.356 0 014.708-1.986 6.478 6.478 0 014.684 1.864 5.933 5.933 0 011.962 4.463c0 2.158-.564 3.237-1.668 3.237-.613 0-.932-.417-.932-1.226V6.086h-2.304v.785a2.467 2.467 0 00-2.134-.956 3.69 3.69 0 00-2.82 1.2 4.13 4.13 0 00-1.128 2.946 4.151 4.151 0 001.128 2.967 3.758 3.758 0 002.82 1.177 2.8 2.8 0 002.379-1.079 2.735 2.735 0 002.82 1.815c2.624 0 4.193-1.913 4.193-5.322a8.011 8.011 0 00-2.649-6.057 8.91 8.91 0 00-6.351-2.5 8.778 8.778 0 00-6.374 2.624A8.632 8.632 0 001 10.012zm7.578-1.349a1.88 1.88 0 012.658-.042l.042.042a2 2 0 010 2.8 1.971 1.971 0 01-2.7 0 2.1 2.1 0 010-2.8z"/></svg><view id="iconCosts" viewBox="117 116 12 12"/><svg viewBox="0 0 12 12" fill="#C6D7FF" width="12" height="12" x="117" y="116" xmlns="http://www.w3.org/2000/svg"><path d="M6 10.5c-2.481 0-4.5-2.019-4.5-4.5S3.519 1.5 6 1.5s4.5 2.019 4.5 4.5-2.019 4.5-4.5 4.5zm0-7A2.503 2.503 0 003.5 6c0 1.379 1.122 2.5 2.5 2.5 1.379 0 2.5-1.121 2.5-2.5 0-1.378-1.121-2.5-2.5-2.5z"/></svg><view id="iconCsv" viewBox="76 40 20 20"/><svg viewBox="0 0 20 20" width="20" height="20" x="76" y="40" xmlns="http://www.w3.org/2000/svg"><path d="M5.091 1c-.904 0-1.636.732-1.636 1.636v4.091h-.819C1.732 6.727 1 7.459 1 8.363v4.092c0 .904.732 1.636 1.636 1.636h.818v1.636c0 .904.732 1.636 1.636 1.636h6.686l-1.636-1.636H5.091v-1.636h8.182v-1.636c0-.904.732-1.636 1.636-1.636h1.636V5.091L12.455 1H5.091zm0 1.636h6.545v3.273h3.273v.818H5.091V2.636zm-.818 5.728c.904 0 1.636.732 1.636 1.636h-.818a.818.818 0 10-1.636 0v.818a.818.818 0 101.636 0h.818a1.637 1.637 0 11-3.273 0V10c0-.904.732-1.636 1.636-1.636h.001zm3.8 0a1.194 1.194 0 011.235 1.23h-.791c0-.084.014-.571-.457-.571a.407.407 0 00-.441.459c.024.362.5.534.59.572.183.067 1.089.471 1.1 1.3a1.078 1.078 0 01-1.216 1.1 1.255 1.255 0 01-1.362-1.31h.8c0 .12.01.7.564.657a.426.426 0 00.417-.436v-.01c.019-.3-.268-.481-.57-.626-.425-.2-1.1-.456-1.111-1.253a1.087 1.087 0 011.242-1.112zm1.927 0h.861l.769 2.983.77-2.983h.869l-1.107 4.091H11.1L10 8.364zm4.909 4.091v3.273h-2.454L15.727 19 19 15.727h-2.455v-3.272h-1.636z"/></svg><view id="iconEclass" viewBox="136 0 12 12"/><svg viewBox="0 0 12 12" width="12" height="12" x="136" xmlns="http://www.w3.org/2000/svg"><path d="M3 6.2l3-3 3 3v2.5H3V6.2z" fill="#46c6ff"/></svg><view id="iconElectricEnergy" viewBox="136 12 12 12"/><svg viewBox="0 0 12 12" fill="#FFB03C" width="12" height="12" x="136" y="12" xmlns="http://www.w3.org/2000/svg"><path d="M5.416 10.5a1.001 1.001 0 01-.831-1.555L5.881 7H4.25a1 1 0 01-.832-1.554l2.333-3.5a1 1 0 111.664 1.11L6.118 5H7.75a1 1 0 01.832 1.554l-2.333 3.5a1 1 0 01-.833.446z"/></svg><view id="iconEllipsis" viewBox="0 76 20 20"/><svg viewBox="0 0 20 20" width="20" height="20" y="76" xmlns="http://www.w3.org/2000/svg"><circle cx="10" cy="10" r="2"/><circle cx="4" cy="10" r="2"/><circle cx="16" cy="10" r="2"/></svg><view id="iconExel" viewBox="20 76 20 20"/><svg viewBox="0 0 20 20" width="20" height="20" x="20" y="76" xmlns="http://www.w3.org/2000/svg"><path d="M10 1L0 3v14l10 2V1zm2 2v2h2v2h-2v2h2v2h-2v2h2v2h-2v2h7a1 1 0 001-1V4a1 1 0 00-1-1h-7zm4 2h2v2h-2V5zM2.176 6.3h1.777l.924 2.215c.079.205.142.415.189.629h.025c.055-.219.122-.435.2-.647L6.322 6.3h1.621L6.007 9.97 8 13.7H6.271l-1.113-2.411a2.05 2.05 0 01-.133-.494H5.01a5.705 5.705 0 01-.15.514L3.736 13.7H2L4.061 10 2.176 6.3zM16 9h2v2h-2V9zm0 4h2v2h-2v-2z"/></svg><view id="iconGas" viewBox="136 24 12 12"/><svg viewBox="0 0 12 12" fill="#FFB03C" width="12" height="12" x="136" y="24" xmlns="http://www.w3.org/2000/svg"><path d="M6 10.5c-.999 0-1.997-.38-2.757-1.14C2.506 8.624 2.1 7.646 2.1 6.604s.405-2.021 1.142-2.758l2.047-2.052a.997.997 0 01.707-.294h.001c.265 0 .519.105.707.292l2.054 2.051a3.905 3.905 0 01.001 5.516A3.89 3.89 0 016 10.5zm-.003-6.585l-1.34 1.343c-.36.36-.558.837-.557 1.345a1.902 1.902 0 003.244 1.343c.74-.741.74-1.947-.001-2.688L5.997 3.915z"/></svg><view id="iconGrid" viewBox="96 80 16 16"/><svg viewBox="0 0 16 16" width="16" height="16" x="96" y="80" xmlns="http://www.w3.org/2000/svg"><path d="M6.5 7.25h-5a.75.75 0 01-.75-.75v-5A.75.75 0 011.5.75h5a.75.75 0 01.75.75v5a.75.75 0 01-.75.75zm-4.25-1.5h3.5v-3.5h-3.5v3.5zm12.25 1.5h-5a.75.75 0 01-.75-.75v-5A.75.75 0 019.5.75h5a.75.75 0 01.75.75v5a.75.75 0 01-.75.75zm-4.25-1.5h3.5v-3.5h-3.5v3.5zm4.25 9.5h-5a.75.75 0 01-.75-.75v-5a.75.75 0 01.75-.75h5a.75.75 0 01.75.75v5a.75.75 0 01-.75.75zm-4.25-1.5h3.5v-3.5h-3.5v3.5zm-3.75 1.5h-5a.75.75 0 01-.75-.75v-5a.75.75 0 01.75-.75h5a.75.75 0 01.75.75v5a.75.75 0 01-.75.75zm-4.25-1.5h3.5v-3.5h-3.5v3.5z"/></svg><view id="iconHotWater" viewBox="136 36 12 12"/><svg viewBox="0 0 12 12" fill="#FF4A7A" width="12" height="12" x="136" y="36" xmlns="http://www.w3.org/2000/svg"><path d="M6 10.5c-.999 0-1.997-.38-2.757-1.14C2.506 8.624 2.1 7.646 2.1 6.604s.405-2.021 1.142-2.758l2.047-2.052a.997.997 0 01.707-.294h.001c.265 0 .519.105.707.292l2.054 2.051a3.905 3.905 0 01.001 5.516A3.89 3.89 0 016 10.5zm-.003-6.585l-1.34 1.343c-.36.36-.558.837-.557 1.345a1.902 1.902 0 003.244 1.343c.74-.741.74-1.947-.001-2.688L5.997 3.915z"/></svg><view id="iconHumidity" viewBox="136 48 12 12"/><svg viewBox="0 0 12 12" fill="#C6D7FF" width="12" height="12" x="136" y="48" xmlns="http://www.w3.org/2000/svg"><path d="M5.996 2.348l2.053 2.051a2.9 2.9 0 11-4.101.001l.001-.001 2.047-2.051z"/></svg><view id="iconInfo" viewBox="136 60 12 12"/><svg viewBox="0 0 12 12" fill="#C6D7FF" width="12" height="12" x="136" y="60" xmlns="http://www.w3.org/2000/svg"><path d="M6 7.5a1 1 0 01-1-1V3a1 1 0 012 0v3.5a1 1 0 01-1 1zM6 11c-.13 0-.26-.03-.38-.08s-.23-.12-.33-.21a.99.99 0 01-.21-1.09c.05-.12.12-.23.21-.33.1-.09.2-.16.33-.21a.991.991 0 01.76 0c.13.05.23.12.33.21.09.1.16.21.21.33a.995.995 0 01-.21 1.09A.994.994 0 016 11z"/></svg><view id="iconLight" viewBox="136 72 12 12"/><svg viewBox="0 0 12 12" fill="#FD0" width="12" height="12" x="136" y="72" xmlns="http://www.w3.org/2000/svg"><path d="M5.999 4.389a1 1 0 01-1-1v-.917a1 1 0 012 0v.917a1 1 0 01-1 1zm0 6.138a1 1 0 01-1-1V8.87a1 1 0 112 0v.657a1 1 0 01-1 1z"/><path d="M4.08 5.176c-.256 0-.512-.098-.708-.293l-.466-.468a1 1 0 111.415-1.413l.467.467a1 1 0 01-.708 1.707zm4.307 4.253a.997.997 0 01-.707-.293l-.467-.467a.999.999 0 111.414-1.414l.467.467a.999.999 0 01-.707 1.707zM3.131 7.121h-.659a1 1 0 010-2h.658a1 1 0 01.001 2z"/><path d="M9.527 7.121H8.87a1 1 0 110-2h.657a1 1 0 110 2zM3.614 9.429a.999.999 0 01-.707-1.707l.467-.467a.999.999 0 111.414 1.414l-.467.467a1 1 0 01-.707.293zM7.92 5.176a1 1 0 01-.708-1.707l.468-.467a.999.999 0 111.414 1.413l-.467.467a.996.996 0 01-.707.294z"/></svg><view id="iconList" viewBox="76 60 16 16"/><svg viewBox="0 0 16 16" width="16" height="16" x="76" y="60" xmlns="http://www.w3.org/2000/svg"><path d="M14.875 3.193H5.456a.75.75 0 010-1.5h9.418a.75.75 0 01.001 1.5zm0 5.557H5.456a.75.75 0 110-1.5h9.418a.75.75 0 01.001 1.5zm0 5.557H5.456a.75.75 0 010-1.5h9.418a.75.75 0 01.001 1.5zM1.125 3.193a.75.75 0 01-.53-1.28c.28-.28.78-.28 1.06 0 .07.07.13.15.16.24a.75.75 0 01-.69 1.04zm0 5.56a.75.75 0 01-.53-.22.716.716 0 01-.16-.25.732.732 0 01.16-.81c.28-.28.78-.28 1.06 0a.75.75 0 01-.53 1.28zm0 5.549a.71.71 0 01-.53-.21.748.748 0 01-.16-.25.728.728 0 01.16-.81c.28-.28.78-.28 1.06 0a.726.726 0 01.16.81.947.947 0 01-.16.25.736.736 0 01-.53.21z"/></svg><view id="iconMapZoom" viewBox="0 0 52 52"/><svg viewBox="0 0 52 52" width="52" height="52" xmlns="http://www.w3.org/2000/svg"><path d="M29.5 40L26 45l-3.5-5zm-7-28L26 7l3.5 5zM40 22.5l5 3.5-5 3.5zm-28 7L7 26l5-3.5z"/></svg><view id="iconOther" viewBox="136 84 12 12"/><svg viewBox="0 0 12 12" fill="#C6D7FF" width="12" height="12" x="136" y="84" xmlns="http://www.w3.org/2000/svg"><path d="M1.756 5.293l3.536-3.536a.999.999 0 011.414 0l3.536 3.536a.999.999 0 010 1.414l-3.536 3.536a.999.999 0 01-1.414 0L1.756 6.707a1 1 0 010-1.414z"/></svg><view id="iconPdf" viewBox="40 76 20 20"/><svg viewBox="0 0 20 20" width="20" height="20" x="40" y="76" xmlns="http://www.w3.org/2000/svg"><path d="M11.8 1h-9v18h14.4V6.4L11.8 1zm1.731 14.128a.912.912 0 01-1.151.585l-.004-.001a3.59 3.59 0 01-1.444-1.094c-.513.087-1.02.209-1.516.365A4.86 4.86 0 017.684 17.1a.947.947 0 01-.434.1.72.72 0 01-.65-.32.94.94 0 01.144-1.313A4.984 4.984 0 018.91 14.4c.284-.59.525-1.2.722-1.824a5.14 5.14 0 01-.722-2.554.94.94 0 01.939-.921c.495 0 .794.336.939.847a5.373 5.373 0 01-.361 2.627c.238.453.503.892.794 1.313a3.378 3.378 0 012.021.219.791.791 0 01.289 1.021zM10.9 7.3V2.35l4.95 4.95H10.9z"/></svg><view id="iconPower" viewBox="136 96 12 12"/><svg viewBox="0 0 12 12" fill="#FF4A7A" width="12" height="12" x="136" y="96" xmlns="http://www.w3.org/2000/svg"><path class="bbst0" d="M6 9.8c-.6 0-1-.4-1-1v-4c0-.6.4-1 1-1s1 .4 1 1v4c0 .5-.4 1-1 1zm3 0c-.6 0-1-.4-1-1v-6c0-.6.4-1 1-1s1 .4 1 1v6c0 .5-.4 1-1 1zm-6 0c-.6 0-1-.4-1-1v-2c0-.6.4-1 1-1s1 .4 1 1v2c0 .5-.4 1-1 1z"/></svg><view id="iconPressure" viewBox="136 108 12 12"/><svg viewBox="0 0 12 12" width="12" height="12" x="136" y="108" xmlns="http://www.w3.org/2000/svg"><path d="M9.104 10.025l-6.405.005s-.559-.048-.849-.544c-.33-.565-.065-1.116-.065-1.116l3.294-5.844S5.307 2.01 6 2.01c.695 0 .914.494.914.494l3.267 5.808s.217.649-.076 1.138c-.347.58-1.001.575-1.001.575zM6 4.958L4.271 8.03h3.457L6 4.958z" fill="#46d4ff"/></svg><view id="iconPrint" viewBox="60 76 20 20"/><svg viewBox="0 0 20 20" width="20" height="20" x="60" y="76" xmlns="http://www.w3.org/2000/svg"><path d="M15.8 8.6h-2V3H6.2v5.6h-2V1h11.6z"/><path d="M16.4 15.8h-2.6v-2h2.6a.6.6 0 00.6-.6v-4a.6.6 0 00-.6-.6H3.6a.6.6 0 00-.6.6v4a.6.6 0 00.6.6h2.6v2H3.6A2.602 2.602 0 011 13.2v-4c0-1.433 1.167-2.6 2.6-2.6h12.8c1.434 0 2.6 1.167 2.6 2.6v4c0 1.434-1.166 2.6-2.6 2.6z"/><path class="bdst0" d="M15.8 19H4.2v-8.4h11.6V19zm-9.6-2h7.6v-4.4H6.2V17z"/></svg><view id="iconReports" viewBox="136 120 12 12"/><svg viewBox="0 0 12 12" width="12" height="12" x="136" y="120" xmlns="http://www.w3.org/2000/svg"><path d="M7.3 10.5c-.3 0-.6-.2-.7-.5L4.7 4.4l-.6 1.8c-.1.3-.3.5-.6.5H1.8c-.4 0-.7-.3-.7-.7s.3-.7.7-.7H3L4.1 2c.1-.3.4-.5.7-.5.2 0 .5.2.6.5l1.9 5.6.6-1.8c.1-.3.3-.5.6-.5h1.7c.4 0 .7.3.7.7s-.3.7-.7.7H9L7.9 10c-.1.3-.3.5-.6.5z"/></svg><view id="iconResponsibility" viewBox="0 134 12 12"/><svg viewBox="0 0 12 12" fill="#87ff2c" width="12" height="12" y="134" xmlns="http://www.w3.org/2000/svg"><path class="bfst0" d="M6 9.8c-.6 0-1-.4-1-1v-4c0-.6.4-1 1-1s1 .4 1 1v4c0 .5-.4 1-1 1zm3 0c-.6 0-1-.4-1-1v-6c0-.6.4-1 1-1s1 .4 1 1v6c0 .5-.4 1-1 1zm-6 0c-.6 0-1-.4-1-1v-2c0-.6.4-1 1-1s1 .4 1 1v2c0 .5-.4 1-1 1z"/></svg><view id="iconSolidFuel" viewBox="12 134 12 12"/><svg viewBox="0 0 12 12" width="12" height="12" x="12" y="134" xmlns="http://www.w3.org/2000/svg"><path class="bgst0" d="M6.003 10.471c-.294 0-.588-.075-.851-.227L2.714 8.848a1.714 1.714 0 01-.851-1.458V4.588a1.715 1.715 0 01.847-1.465l2.444-1.394c.52-.3 1.17-.3 1.695.002l2.438 1.391c.523.304.848.862.853 1.46v2.797c0 .601-.322 1.162-.841 1.466l-2.45 1.4a1.687 1.687 0 01-.846.226zm-.149-1.96l-.002.001.002-.001zm.293-.001h.001-.001zM3.863 7.201l2.139 1.225 2.137-1.221V4.771L5.999 3.55 3.863 4.768v2.433zm1.991-3.734l.002.001-.002-.001zm.294-.003l-.002.001.002-.001z"/><path class="bgst0" d="M7.5 10.5h-3c-1.654 0-3-1.346-3-3v-3c0-1.654 1.346-3 3-3h3c1.654 0 3 1.346 3 3v3c0 1.654-1.346 3-3 3zm-3-7c-.551 0-1 .449-1 1v3c0 .552.449 1 1 1h3a1 1 0 001-1v-3c0-.551-.448-1-1-1h-3z"/></svg><view id="iconStateitp" viewBox="24 134 12 12"/><svg viewBox="0 0 12 12" width="12" height="12" x="24" y="134" xmlns="http://www.w3.org/2000/svg"><path d="M5.2 9.2c-.3 0-.5-.1-.7-.3L1.8 6.3c-.4-.4-.4-1 0-1.4s1-.4 1.4 0l1.9 1.9 3.6-3.7c.4-.4 1-.4 1.4 0s.4 1 0 1.4L5.9 8.9c-.2.2-.5.3-.7.3z" fill="#fd0"/></svg><view id="iconTechnicalWater" viewBox="36 134 12 12"/><svg viewBox="0 0 12 12" width="12" height="12" x="36" y="134" xmlns="http://www.w3.org/2000/svg"><path d="M6 10.5c-.999 0-1.997-.38-2.757-1.14C2.506 8.624 2.1 7.646 2.1 6.604s.405-2.021 1.142-2.758l2.047-2.052a.997.997 0 01.707-.294h.001c.265 0 .519.105.707.292l2.054 2.051a3.905 3.905 0 01.001 5.516A3.89 3.89 0 016 10.5zm-.003-6.585l-1.34 1.343c-.36.36-.558.837-.557 1.345a1.902 1.902 0 003.244 1.343c.74-.741.74-1.947-.001-2.688L5.997 3.915z" opacity=".6" fill="#c6d7ff"/></svg><view id="iconTemperature" viewBox="48 134 12 12"/><svg viewBox="0 0 12 12" width="12" height="12" x="48" y="134" xmlns="http://www.w3.org/2000/svg"><path d="M6.92 7.016V2.87a.92.92 0 00-1.841 0v4.146a1.657 1.657 0 101.841 0z" fill="#ff4a7a"/></svg><view id="iconThermalEnergy" viewBox="60 134 12 12"/><svg viewBox="0 0 12 12" fill="#8CFF52" width="12" height="12" x="60" y="134" xmlns="http://www.w3.org/2000/svg"><path d="M6.92 7.016V2.87a.92.92 0 00-1.841 0v4.146a1.657 1.657 0 101.841 0z"/></svg><view id="landingAbout" viewBox="72 134 12 12"/><svg viewBox="0 0 12 12" fill="#30E584" width="12" height="12" x="72" y="134" xmlns="http://www.w3.org/2000/svg"><path class="blst0" d="M6 9.8c-.4 0-.8-.4-.8-.8V6c0-.4.3-.8.8-.8s.8.4.8.8v3c0 .4-.4.8-.8.8zm0-6c-.2 0-.4-.1-.5-.2-.2-.2-.3-.4-.3-.6s.1-.4.2-.5c.1-.1.2-.1.2-.2.3-.1.6 0 .8.2.3.1.4.3.4.5s-.1.4-.3.5c-.1.2-.3.3-.5.3z"/></svg><view id="landingAccounting" viewBox="84 134 12 12"/><svg viewBox="0 0 12 12" fill="#30E584" width="12" height="12" x="84" y="134" xmlns="http://www.w3.org/2000/svg"><path d="M6.1 7.4c-.1 0-.2 0-.3-.1L4.4 5.9c-.2-.2-.2-.5 0-.7.2-.2.5-.2.7 0l1 1 4.1-4.1c.2-.2.5-.2.7 0s.2.5 0 .7L6.4 7.2c-.1.1-.2.2-.3.2z"/><path d="M2.9 10.5c-.8 0-1.4-.6-1.4-1.4V2.9c0-.8.6-1.4 1.4-1.4h4.9c.3 0 .5.2.5.5s-.2.4-.4.4h-5c-.2 0-.4.2-.4.4v6.3c0 .2.2.4.4.4h6.3c.2 0 .4-.2.4-.4V6c0-.3.2-.5.5-.5s.5.2.5.5v3.1c0 .8-.6 1.4-1.4 1.4H2.9z"/></svg><view id="landingBell" viewBox="96 134 12 12"/><svg viewBox="0 0 12 12" fill="#FF4A7A" width="12" height="12" x="96" y="134" xmlns="http://www.w3.org/2000/svg"><path d="M9.6 8.5H2.4c-.2 0-.4-.2-.5-.3 0-.2 0-.4.2-.5 0 0 1-.8 1-3.3 0-1.6 1.3-2.9 2.9-2.9 1.6 0 2.9 1.3 2.9 2.9 0 2.5 1 3.3 1 3.3.2.1.2.3.2.5-.1.1-.3.3-.5.3zm-6.3-.9h5.4C8.3 7 8 5.9 8 4.4c0-1.1-.9-2-2-2s-2 .9-2 2c0 1.5-.3 2.6-.7 3.2zM6 10.5c-.2 0-.4-.1-.6-.2-.2-.1-.4-.2-.5-.4-.1-.2 0-.5.2-.6.2-.1.5-.1.6.2 0 .1.1.1.1.1.2.1.4 0 .5-.1.1-.2.4-.3.6-.2.2.1.3.4.2.6-.2.4-.7.6-1.1.6z"/></svg><view id="landingEplanning" viewBox="108 134 12 12"/><svg viewBox="0 0 12 12" fill="#FD0" width="12" height="12" x="108" y="134" xmlns="http://www.w3.org/2000/svg"><path d="M6 7.3c-.1 0-.2 0-.4-.1l-3.7-2c-.2-.1-.4-.3-.4-.6s.2-.5.4-.7l3.7-2c.2-.1.5-.1.7 0l3.8 2c.2.1.4.4.4.7 0 .3-.2.5-.4.7l-3.8 2H6zM3.8 4.6L6 5.7l2.2-1.2L6 3.4 3.8 4.6z"/><path d="M6 9.7c-.1 0-.2 0-.4-.1l-3.7-2c-.4-.2-.5-.6-.3-1s.6-.5 1-.3L6 8.1l3.4-1.8c.4-.2.8-.1 1 .3.2.4.1.8-.3 1l-3.8 2c-.1.1-.2.1-.3.1z"/></svg><view id="landingLogin" viewBox="80 76 16 16"/><svg viewBox="0 0 16 16" width="16" height="16" x="80" y="76" xmlns="http://www.w3.org/2000/svg"><path d="M8 0C3.6 0 0 3.6 0 8s3.6 8 8 8 8-3.6 8-8c0-2.1-.8-4.2-2.3-5.7C12.2.8 10.1 0 8 0zm0 2.4c1.3 0 2.4 1.1 2.4 2.4S9.3 7.2 8 7.2c-1.3 0-2.4-1.1-2.4-2.4 0-.6.3-1.2.7-1.7.5-.4 1.1-.7 1.7-.7zm0 11.4c-1.9 0-3.7-1-4.8-2.6 0-1.6 3.2-2.5 4.8-2.5s4.8.9 4.8 2.5c-1.1 1.6-2.9 2.6-4.8 2.6z"/></svg><view id="landingProtect" viewBox="120 134 12 12"/><svg viewBox="0 0 12 12" fill="#41D7FF" width="12" height="12" x="120" y="134" xmlns="http://www.w3.org/2000/svg"><path d="M6 10.5h-.2c-.1-.1-3.5-1.8-3.5-4.5V3.2c0-.2.1-.4.3-.4l3.2-1.2h.3l3.2 1.2c.3 0 .4.2.4.4V6c0 2.7-3.3 4.4-3.5 4.5H6zm-2.8-7V6c0 1.8 2.1 3.2 2.8 3.5.7-.3 2.8-1.7 2.8-3.5V3.5L6 2.4 3.2 3.5z"/></svg><view id="menuIconBlocks" viewBox="96 0 20 20"/><svg viewBox="0 0 20 20" width="20" height="20" x="96" xmlns="http://www.w3.org/2000/svg"><path d="M9.999 11.25a.741.741 0 01-.354-.089l-6.999-3.75a.75.75 0 010-1.322l6.999-3.75a.749.749 0 01.709 0l7 3.75a.752.752 0 01-.001 1.322l-7 3.75a.741.741 0 01-.354.089zm-5.411-4.5l5.411 2.899 5.412-2.899-5.412-2.899L4.588 6.75zm5.411 11a.741.741 0 01-.354-.089l-6.999-3.75a.75.75 0 01.708-1.323L10 16.149l6.646-3.561a.75.75 0 11.709 1.323l-7 3.75a.754.754 0 01-.356.089z"/><path d="M9.999 14.333a.741.741 0 01-.354-.089l-6.999-3.75a.75.75 0 01.708-1.323L10 12.732l6.646-3.561a.75.75 0 01.709 1.323l-7 3.75a.754.754 0 01-.356.089z"/></svg><view id="menuIconDashboard" viewBox="96 20 20 20"/><svg viewBox="0 0 20 20" width="20" height="20" x="96" y="20" xmlns="http://www.w3.org/2000/svg"><path d="M15 2.25H5A2.752 2.752 0 002.25 5v10A2.752 2.752 0 005 17.75h10A2.752 2.752 0 0017.75 15V5A2.752 2.752 0 0015 2.25zM5 3.75h10c.689 0 1.25.561 1.25 1.25v1.917H3.75V5c0-.689.561-1.25 1.25-1.25zM3.75 15V8.417h3.167v7.833H5c-.689 0-1.25-.561-1.25-1.25zM15 16.25H8.417V8.417h7.833V15c0 .689-.561 1.25-1.25 1.25z"/></svg><view id="menuIconExpand" viewBox="96 40 20 20"/><svg viewBox="0 0 20 20" width="20" height="20" x="96" y="40" xmlns="http://www.w3.org/2000/svg"><path d="M13.729 3.083a.75.75 0 00-.75.75V9.25H5.081l1.784-1.784a.75.75 0 10-1.061-1.061L2.741 9.47a.733.733 0 00-.213.496c-.001.012-.007.022-.007.034 0 .012.006.022.007.034a.75.75 0 00.051.252.749.749 0 00.162.244l3.064 3.064a.75.75 0 101.061-1.061L5.082 10.75h7.898v5.417a.75.75 0 001.5 0V3.833a.752.752 0 00-.751-.75zm3 0a.75.75 0 00-.75.75v12.333a.75.75 0 001.5 0V3.833a.75.75 0 00-.75-.75z"/></svg><view id="menuIconMoon" viewBox="96 60 20 20"/><svg viewBox="0 0 20 20" width="20" height="20" x="96" y="60" xmlns="http://www.w3.org/2000/svg"><path d="M10.028 17.751a7.715 7.715 0 01-5.987-2.804A7.716 7.716 0 012.282 9.27 7.766 7.766 0 019.3 2.252a.749.749 0 01.672 1.193 4.713 4.713 0 00.985 6.582 4.679 4.679 0 005.597 0 .75.75 0 011.192.672 7.713 7.713 0 01-2.771 5.258 7.696 7.696 0 01-4.947 1.794zM7.942 4.072a6.27 6.27 0 00-4.165 5.337 6.227 6.227 0 001.419 4.58 6.219 6.219 0 004.243 2.234 6.21 6.21 0 004.58-1.419 6.22 6.22 0 001.909-2.742 6.163 6.163 0 01-5.862-.829C7.792 9.552 7 6.6 7.942 4.072z"/></svg><view id="menuIconOrgs" viewBox="0 96 20 20"/><svg viewBox="0 0 20 20" width="20" height="20" y="96" xmlns="http://www.w3.org/2000/svg"><path d="M16.744 4.782l-5.572-3.185a2.347 2.347 0 00-2.341-.002L3.254 4.78a2.35 2.35 0 00-1.176 2.032v6.376a2.347 2.347 0 001.178 2.029l5.576 3.187c.362.209.767.312 1.172.312a2.34 2.34 0 001.168-.311l5.583-3.191a2.35 2.35 0 001.167-2.027V6.811a2.35 2.35 0 00-1.178-2.029zM9.578 2.896a.856.856 0 01.847.002l5.214 2.98L10 9.141 4.358 5.877l5.22-2.981zm-5.577 11.02a.846.846 0 01-.423-.729V7.159L9.25 10.44v6.475l-5.249-2.999zm12.005-.001L10.75 16.92v-6.48l5.672-3.281v6.028c0 .3-.161.58-.416.728z"/></svg><view id="menuIconReports" viewBox="20 96 20 20"/><svg viewBox="0 0 20 20" width="20" height="20" x="20" y="96" xmlns="http://www.w3.org/2000/svg"><path d="M15 2.25H5A2.752 2.752 0 002.25 5v10A2.752 2.752 0 005 17.75h10A2.752 2.752 0 0017.75 15V5A2.752 2.752 0 0015 2.25zM16.25 15c0 .689-.561 1.25-1.25 1.25H5c-.689 0-1.25-.561-1.25-1.25V5c0-.689.561-1.25 1.25-1.25h10c.689 0 1.25.561 1.25 1.25v10z"/><path class="bwst0" d="M10 8.917a.75.75 0 00-.75.75V14a.75.75 0 001.5 0V9.667a.75.75 0 00-.75-.75zm3.5-3a.75.75 0 00-.75.75V14a.75.75 0 001.5 0V6.667a.75.75 0 00-.75-.75zm-7 6a.75.75 0 00-.75.75V14a.75.75 0 001.5 0v-1.333a.75.75 0 00-.75-.75z"/></svg><view id="menuIconServices" viewBox="40 96 20 20"/><svg viewBox="0 0 20 20" width="20" height="20" x="40" y="96" xmlns="http://www.w3.org/2000/svg"><path d="M9.991 1.667A8.333 8.333 0 1018.333 10a8.329 8.329 0 00-8.325-8.333h-.017zm6.233 5.967l-4.175-.358-1.666-3.926a6.688 6.688 0 015.841 4.284zm-4.225 5.217l-2-1.2-1.992 1.2.525-2.267-1.758-1.525 2.317-.2.908-2.142.908 2.133 2.317.2-1.758 1.525.533 2.276zM9.616 3.35L7.949 7.284l-4.183.358a6.674 6.674 0 015.85-4.292zM3.333 10c0-.523.065-1.043.192-1.55l3.158 2.733-.925 3.958A6.653 6.653 0 013.333 10zm3.2 5.683L10 13.591l3.466 2.084a6.579 6.579 0 01-6.933.008zm7.708-.542l-.925-3.958 3.158-2.733c.124.507.188 1.028.192 1.55a6.677 6.677 0 01-2.425 5.142v-.001z"/></svg><view id="menuIconSun" viewBox="60 96 20 20"/><svg viewBox="0 0 20 20" width="20" height="20" x="60" y="96" xmlns="http://www.w3.org/2000/svg"><path d="M10 13.458c-1.777 0-3.223-1.445-3.223-3.223S8.223 7.012 10 7.012s3.223 1.446 3.223 3.224-1.446 3.222-3.223 3.222zm0-4.946a1.724 1.724 0 10.001 3.445A1.724 1.724 0 0010 8.512zm0-2.941a.75.75 0 01-.75-.75V3a.75.75 0 011.5 0v1.821a.75.75 0 01-.75.75zm0 12.179a.75.75 0 01-.75-.75v-1.306a.75.75 0 011.5 0V17a.75.75 0 01-.75.75zM6.191 7.13a.744.744 0 01-.53-.22l-.927-.927a.75.75 0 111.061-1.061l.926.928a.75.75 0 01-.53 1.28zm8.545 8.441a.744.744 0 01-.53-.22l-.928-.928a.75.75 0 111.061-1.061l.928.928a.75.75 0 01-.531 1.281zm-10.43-4.579H3a.75.75 0 010-1.5h1.306a.75.75 0 010 1.5zm12.694 0h-1.306a.75.75 0 010-1.5H17a.75.75 0 010 1.5zM5.264 15.571a.75.75 0 01-.53-1.281l.927-.928a.75.75 0 111.061 1.061l-.927.928a.748.748 0 01-.531.22zm8.545-8.441a.75.75 0 01-.53-1.281l.928-.927a.75.75 0 111.061 1.061l-.929.927a.747.747 0 01-.53.22z"/></svg><view id="passEye" viewBox="80 96 20 20"/><svg viewBox="0 0 20 20" width="20" height="20" x="80" y="96" xmlns="http://www.w3.org/2000/svg"><path d="M1.8 10s3-6 8.2-6 8.2 6 8.2 6-3 6-8.2 6-8.2-6-8.2-6z"/><ellipse cx="10" cy="10" rx="2.3" ry="2.2"/></svg><view id="rangeIcon" viewBox="116 0 20 20"/><svg viewBox="0 0 20 20" width="20" height="20" x="116" xmlns="http://www.w3.org/2000/svg"><path d="M6.919 14.286h-5.49V16h6.589v-1.714H6.919zm4.616-5.143H1.429v1.714h12.129V9.143h-2.023zM15.715 4H1.429v1.714h17.143V4h-2.857z"/></svg><view id="search" viewBox="116 20 20 20"/><svg viewBox="0 0 20 20" width="20" height="20" x="116" y="20" xmlns="http://www.w3.org/2000/svg"><path d="M18.375 17.314l-3.358-3.358a7.823 7.823 0 001.8-5c0-4.335-3.526-7.861-7.861-7.861S1.095 4.621 1.095 8.956s3.526 7.861 7.861 7.861a7.826 7.826 0 005.001-1.8l3.358 3.358a.748.748 0 001.06 0 .75.75 0 000-1.061zM2.595 8.956c0-3.508 2.854-6.361 6.361-6.361s6.361 2.854 6.361 6.361a6.34 6.34 0 01-1.848 4.477c-.006.006-.015.008-.021.014-.006.006-.008.015-.014.021a6.338 6.338 0 01-4.477 1.849 6.368 6.368 0 01-6.362-6.361z"/></svg><view id="socialFB" viewBox="116 58 18 18"/><svg viewBox="0 0 18 18" width="18" height="18" x="116" y="58" xmlns="http://www.w3.org/2000/svg"><path d="M18 9c0-5-4-9-9-9S0 4 0 9c0 4.4 3.2 8.2 7.6 8.9v-6.3H5.3V9h2.3V7c-.2-1.7 1.1-3.3 2.8-3.5h.6c.7 0 1.3.1 2 .2v2.2h-1.1c-.7-.1-1.4.4-1.5 1.1v2h2.5l-.4 2.6h-2.1v6.3c4.4-.7 7.6-4.5 7.6-8.9z"/></svg><view id="socialIN" viewBox="116 76 18 18"/><svg viewBox="0 0 18 18" width="18" height="18" x="116" y="76" xmlns="http://www.w3.org/2000/svg"><path d="M13.1 18H4.9C2.2 18 0 15.8 0 13.1V4.9C0 2.2 2.2 0 4.9 0h8.2C15.8 0 18 2.2 18 4.9v8.2c0 2.7-2.2 4.9-4.9 4.9zM4.9 1.6c-1.8 0-3.3 1.5-3.3 3.3v8.2c0 1.8 1.5 3.3 3.3 3.3h8.2c1.8 0 3.3-1.5 3.3-3.3V4.9c0-1.8-1.5-3.3-3.3-3.3H4.9z"/><path d="M9 4.3C6.4 4.3 4.3 6.4 4.3 9s2.1 4.7 4.7 4.7 4.7-2.1 4.7-4.7S11.6 4.3 9 4.3zm0 7.8c-1.7 0-3.1-1.4-3.1-3.1S7.3 5.9 9 5.9s3.1 1.4 3.1 3.1-1.4 3.1-3.1 3.1z"/></svg><view id="socialTG" viewBox="116 94 18 18"/><svg viewBox="0 0 18 18" width="18" height="18" x="116" y="94" xmlns="http://www.w3.org/2000/svg"><path d="M1.2 8C6 5.9 9.3 4.5 10.9 3.8c4.6-1.9 5.6-2.2 6.2-2.3.2 0 .5.1.6.2.2.1.2.3.3.5v.7c-.2 2.6-1.3 9-1.9 11.9-.2 1.2-.7 1.7-1.1 1.7-1 .1-1.7-.6-2.6-1.2-1.5-1-2.3-1.6-3.7-2.5-1.7-1.2-.6-1.8.3-2.7.2-.3 4.5-4.1 4.6-4.5 0-.1 0-.2-.1-.3-.1-.1-.2-.1-.3 0-.1 0-2.5 1.6-7 4.6-.5.4-1.1.6-1.8.7-.9-.1-1.7-.3-2.6-.6-1-.4-1.9-.5-1.8-1.1 0-.3.5-.6 1.2-.9z"/></svg><view id="socialTW" viewBox="0 116 18 18"/><svg viewBox="0 0 18 18" width="18" height="18" y="116" xmlns="http://www.w3.org/2000/svg"><path d="M17.5 3.7c-.6.3-1.3.5-2 .5.7-.4 1.3-1.1 1.5-1.9-.7.4-1.4.7-2.2.8-1.3-1.3-3.5-1.4-4.9-.1-.9.9-1.3 2.2-1 3.4-2.8-.2-5.4-1.5-7.2-3.7-.9 1.6-.5 3.7 1.1 4.7-.6 0-1.1-.2-1.6-.4 0 1.7 1.2 3.1 2.8 3.4-.3.1-.6.1-.9.1-.2 0-.4 0-.7-.1.5 1.4 1.8 2.4 3.3 2.4-1.2 1-2.8 1.5-4.3 1.5-.3 0-.6 0-.8-.1 1.6 1 3.4 1.6 5.3 1.6 5.4 0 9.9-4.3 9.9-9.8v-.6c.6-.4 1.2-1 1.7-1.7z"/></svg><view id="socialYT" viewBox="18 116 18 18"/><svg viewBox="0 0 18 18" width="18" height="18" x="18" y="116" xmlns="http://www.w3.org/2000/svg"><path d="M17.6 4.7c-.2-.8-.8-1.4-1.6-1.6-2.3-.3-4.7-.4-7-.4-2.4 0-4.7.1-7 .4-.8.2-1.4.8-1.6 1.6C.1 6.1 0 7.5 0 9s.1 2.9.4 4.3c.2.8.8 1.4 1.6 1.6 2.3.3 4.7.4 7 .4 2.4 0 4.7-.1 7-.4.8-.2 1.4-.8 1.6-1.6.3-1.4.4-2.8.4-4.3 0-1.4-.1-2.9-.4-4.3zm-10.4 7V6.3L11.9 9l-4.7 2.7z"/></svg><view id="statusAccident" viewBox="100 96 15 15"/><svg viewBox="0 0 15 15" width="15" height="15" x="100" y="96" xmlns="http://www.w3.org/2000/svg"><path d="M6.3 1.6L.2 11.8c-.4.7-.2 1.6.5 2 .2.1.5.2.7.2h12.2c.8 0 1.4-.7 1.4-1.5 0-.2-.1-.5-.2-.7L8.7 1.6C8.3 1 7.4.7 6.8 1.2c-.2.1-.4.2-.5.4z" fill="#ff4a7a"/><path d="M7.5 8.9c-.4 0-.7-.3-.7-.7V5.3c0-.4.3-.7.7-.7s.7.3.7.7v2.9c0 .4-.3.7-.7.7zm0 2.9c-.2 0-.4-.1-.5-.2-.1-.1-.2-.3-.2-.5 0-.1 0-.2.1-.3 0-.1.1-.2.2-.2.3-.3.7-.3 1 0 .1.1.1.2.2.2 0 .1.1.2.1.3s0 .2-.1.3c0 .1-.1.2-.2.2-.2.1-.4.2-.6.2z" fill="#fff"/></svg><view id="statusAlert" viewBox="36 116 15 15"/><svg viewBox="0 0 15 15" width="15" height="15" x="36" y="116" xmlns="http://www.w3.org/2000/svg"><path d="M6.3 1.6L.2 11.8c-.4.7-.2 1.6.5 2 .2.1.5.2.7.2h12.2c.8 0 1.4-.7 1.4-1.5 0-.2-.1-.5-.2-.7L8.7 1.6C8.3 1 7.4.7 6.8 1.2c-.2.1-.4.2-.5.4z" fill="#ff974a"/><path d="M7.5 8.9c-.4 0-.7-.3-.7-.7V5.3c0-.4.3-.7.7-.7s.7.3.7.7v2.9c0 .4-.3.7-.7.7zm0 2.9c-.2 0-.4-.1-.5-.2-.1-.1-.2-.3-.2-.5 0-.1 0-.2.1-.3 0-.1.1-.2.2-.2.3-.3.7-.3 1 0 .1.1.1.2.2.2 0 .1.1.2.1.3s0 .2-.1.3c0 .1-.1.2-.2.2-.2.1-.4.2-.6.2z" fill="#fff"/></svg><view id="statusCheck" viewBox="51 116 15 15"/><svg viewBox="0 0 15 15" width="15" height="15" x="51" y="116" xmlns="http://www.w3.org/2000/svg"><circle fill="#FFF" class="cjst0" cx="7.5" cy="7.5" r="5.5"/><path fill="#8CD31A" d="M7.5 15A7.5 7.5 0 1115 7.5 7.51 7.51 0 017.5 15zM4.364 6.275L3.108 7.531l2.515 2.515L6.878 11.3l1.257-1.257 4.4-4.4-1.256-1.254-4.4 4.4-2.515-2.514z"/></svg><view id="statusWaiting" viewBox="66 116 15 15"/><svg viewBox="0 0 15 15" width="15" height="15" x="66" y="116" xmlns="http://www.w3.org/2000/svg"><circle cx="7.76" cy="6.13" r="4.88" fill="#fff"/><path d="M7.501 15a7.5 7.5 0 117.5-7.5 7.51 7.51 0 01-7.5 7.5zM6.537 2.418v5.974h4.316v-1.77H8.308v-4.2l-1.771-.004z" fill="#FF974A"/></svg></svg>