<?xml version="1.0" encoding="utf-8"?><svg width="60" height="60" viewBox="0 0 60 60" xmlns="http://www.w3.org/2000/svg" xmlns:xlink="http://www.w3.org/1999/xlink"><view id="menuIconBlocks" viewBox="0 0 20 20"/><svg viewBox="0 0 20 20" width="20" height="20" xmlns="http://www.w3.org/2000/svg"><path d="M9.999 11.25a.741.741 0 01-.354-.089l-6.999-3.75a.75.75 0 010-1.322l6.999-3.75a.749.749 0 01.709 0l7 3.75a.752.752 0 01-.001 1.322l-7 3.75a.741.741 0 01-.354.089zm-5.411-4.5l5.411 2.899 5.412-2.899-5.412-2.899L4.588 6.75zm5.411 11a.741.741 0 01-.354-.089l-6.999-3.75a.75.75 0 01.708-1.323L10 16.149l6.646-3.561a.75.75 0 11.709 1.323l-7 3.75a.754.754 0 01-.356.089z"/><path d="M9.999 14.333a.741.741 0 01-.354-.089l-6.999-3.75a.75.75 0 01.708-1.323L10 12.732l6.646-3.561a.75.75 0 01.709 1.323l-7 3.75a.754.754 0 01-.356.089z"/></svg><view id="menuIconDashboard" viewBox="20 0 20 20"/><svg viewBox="0 0 20 20" width="20" height="20" x="20" xmlns="http://www.w3.org/2000/svg"><path d="M15 2.25H5A2.752 2.752 0 002.25 5v10A2.752 2.752 0 005 17.75h10A2.752 2.752 0 0017.75 15V5A2.752 2.752 0 0015 2.25zM5 3.75h10c.689 0 1.25.561 1.25 1.25v1.917H3.75V5c0-.689.561-1.25 1.25-1.25zM3.75 15V8.417h3.167v7.833H5c-.689 0-1.25-.561-1.25-1.25zM15 16.25H8.417V8.417h7.833V15c0 .689-.561 1.25-1.25 1.25z"/></svg><view id="menuIconExpand" viewBox="0 20 20 20"/><svg viewBox="0 0 20 20" width="20" height="20" y="20" xmlns="http://www.w3.org/2000/svg"><path d="M13.729 3.083a.75.75 0 00-.75.75V9.25H5.081l1.784-1.784a.75.75 0 10-1.061-1.061L2.741 9.47a.733.733 0 00-.213.496c-.001.012-.007.022-.007.034 0 .012.006.022.007.034a.75.75 0 00.051.252.749.749 0 00.162.244l3.064 3.064a.75.75 0 101.061-1.061L5.082 10.75h7.898v5.417a.75.75 0 001.5 0V3.833a.752.752 0 00-.751-.75zm3 0a.75.75 0 00-.75.75v12.333a.75.75 0 001.5 0V3.833a.75.75 0 00-.75-.75z"/></svg><view id="menuIconOrgs" viewBox="20 20 20 20"/><svg viewBox="0 0 20 20" width="20" height="20" x="20" y="20" xmlns="http://www.w3.org/2000/svg"><path d="M16.744 4.782l-5.572-3.185a2.347 2.347 0 00-2.341-.002L3.254 4.78a2.35 2.35 0 00-1.176 2.032v6.376a2.347 2.347 0 001.178 2.029l5.576 3.187c.362.209.767.312 1.172.312a2.34 2.34 0 001.168-.311l5.583-3.191a2.35 2.35 0 001.167-2.027V6.811a2.35 2.35 0 00-1.178-2.029zM9.578 2.896a.856.856 0 01.847.002l5.214 2.98L10 9.141 4.358 5.877l5.22-2.981zm-5.577 11.02a.846.846 0 01-.423-.729V7.159L9.25 10.44v6.475l-5.249-2.999zm12.005-.001L10.75 16.92v-6.48l5.672-3.281v6.028c0 .3-.161.58-.416.728z"/></svg><view id="menuIconReports" viewBox="40 0 20 20"/><svg viewBox="0 0 20 20" width="20" height="20" x="40" xmlns="http://www.w3.org/2000/svg"><path d="M15 2.25H5A2.752 2.752 0 002.25 5v10A2.752 2.752 0 005 17.75h10A2.752 2.752 0 0017.75 15V5A2.752 2.752 0 0015 2.25zM16.25 15c0 .689-.561 1.25-1.25 1.25H5c-.689 0-1.25-.561-1.25-1.25V5c0-.689.561-1.25 1.25-1.25h10c.689 0 1.25.561 1.25 1.25v10z"/><path class="est0" d="M10 8.917a.75.75 0 00-.75.75V14a.75.75 0 001.5 0V9.667a.75.75 0 00-.75-.75zm3.5-3a.75.75 0 00-.75.75V14a.75.75 0 001.5 0V6.667a.75.75 0 00-.75-.75zm-7 6a.75.75 0 00-.75.75V14a.75.75 0 001.5 0v-1.333a.75.75 0 00-.75-.75z"/></svg><view id="menuIconServices" viewBox="40 20 20 20"/><svg viewBox="0 0 20 20" width="20" height="20" x="40" y="20" xmlns="http://www.w3.org/2000/svg"><path d="M9.991 1.667A8.333 8.333 0 1018.333 10a8.329 8.329 0 00-8.325-8.333h-.017zm6.233 5.967l-4.175-.358-1.666-3.926a6.688 6.688 0 015.841 4.284zm-4.225 5.217l-2-1.2-1.992 1.2.525-2.267-1.758-1.525 2.317-.2.908-2.142.908 2.133 2.317.2-1.758 1.525.533 2.276zM9.616 3.35L7.949 7.284l-4.183.358a6.674 6.674 0 015.85-4.292zM3.333 10c0-.523.065-1.043.192-1.55l3.158 2.733-.925 3.958A6.653 6.653 0 013.333 10zm3.2 5.683L10 13.591l3.466 2.084a6.579 6.579 0 01-6.933.008zm7.708-.542l-.925-3.958 3.158-2.733c.124.507.188 1.028.192 1.55a6.677 6.677 0 01-2.425 5.142v-.001z"/></svg><view id="passEye" viewBox="0 40 20 20"/><svg viewBox="0 0 20 20" width="20" height="20" y="40" xmlns="http://www.w3.org/2000/svg"><path d="M1.8 10s3-6 8.2-6 8.2 6 8.2 6-3 6-8.2 6-8.2-6-8.2-6z"/><ellipse cx="10" cy="10" rx="2.3" ry="2.2"/></svg></svg>