<?xml version="1.0" encoding="utf-8"?>
<!-- Generator: Adobe Illustrator 24.2.3, SVG Export Plug-In . SVG Version: 6.00 Build 0)  -->
<svg version="1.1" id="Layer_1" xmlns="http://www.w3.org/2000/svg" xmlns:xlink="http://www.w3.org/1999/xlink" x="0px" y="0px"
	 viewBox="0 0 40 40" style="enable-background:new 0 0 40 40;" xml:space="preserve">
<path d="M39.9,20.6c0.2-0.4,0.2-0.9,0-1.3c-0.1-0.2-0.2-0.4-0.4-0.5l-8.3-8.3c-0.7-0.7-1.7-0.7-2.4,0c-0.7,0.7-0.7,1.7,0,2.4
	l5.5,5.5H1.7C0.7,18.3,0,19.1,0,20s0.7,1.7,1.7,1.7h32.6l-5.5,5.5c-0.7,0.7-0.7,1.7,0,2.4c0.3,0.3,0.8,0.5,1.2,0.5s0.9-0.2,1.2-0.5
	l8.3-8.3C39.7,21,39.8,20.8,39.9,20.6z"/>
</svg>
